<svg width="153" height="16" fill="none" xmlns="http://www.w3.org/2000/svg"><path d="M.328 8.078c0 1.094.414 2.047 1.258 2.86.836.812 1.828 1.218 2.976 1.218.407 0 .797-.054 1.165-.172.367-.117.664-.242.89-.382.235-.141.446-.297.64-.477.204-.18.329-.305.384-.383l.125-.18-1.282-1.359-.21.266c-.141.172-.376.344-.696.515a2.11 2.11 0 01-1.016.258c-.562 0-1.046-.21-1.46-.633a2.125 2.125 0 01-.618-1.523c0-.594.211-1.11.618-1.531a1.965 1.965 0 011.46-.633c.36 0 .696.101 1.016.289.32.187.531.344.625.46.094.126.164.22.203.29l1.36-1.36-.118-.163c-.078-.11-.21-.25-.398-.407a6.188 6.188 0 00-.625-.46 3.328 3.328 0 00-.898-.4A4.072 4.072 0 004.562 4c-1.148 0-2.14.414-2.984 1.227-.836.812-1.25 1.765-1.25 2.851zm10.649.008c0-.586.187-1.078.57-1.484.375-.399.828-.602 1.351-.602.516 0 .97.203 1.352.602.375.406.57.898.57 1.484s-.195 1.078-.57 1.476c-.383.399-.836.594-1.352.594a1.79 1.79 0 01-1.351-.594c-.383-.398-.57-.89-.57-1.476zm6.078-.008c0-1.086-.414-2.039-1.242-2.851-.829-.813-1.797-1.22-2.915-1.22-1.125 0-2.093.407-2.921 1.22-.829.812-1.243 1.765-1.243 2.851 0 1.094.414 2.047 1.243 2.86.828.812 1.796 1.218 2.921 1.218 1.118 0 2.086-.406 2.915-1.219.828-.812 1.242-1.765 1.242-2.859zm3.758-3.922h-2.157V12h2.157V7.922c0-.586.14-1.04.43-1.36.288-.32.679-.484 1.171-.484.445 0 .813.149 1.094.445.281.297.422.68.422 1.157V12h2.156V7.437c0-1.046-.281-1.882-.844-2.507-.562-.617-1.297-.93-2.195-.93-.422 0-.828.11-1.219.313-.39.21-.64.375-.758.5-.11.125-.203.226-.265.312l.008-.969zm8.32-.875c0 .313-.086.563-.258.75a.803.803 0 01-.625.29h-.719v1.921h1.36v3.196c0 1.812.82 2.718 2.476 2.718a3.873 3.873 0 001.445-.234v-1.844l-.093.031a1.814 1.814 0 01-.711.133.95.95 0 01-.688-.258.821.821 0 01-.265-.625V6.242h1.593V4.32h-1.593V1.844h-1.922V3.28zM38.648 12h2.157V7.117c0-.89-.313-1.633-.938-2.226C39.242 4.297 38.43 4 37.445 4a3.94 3.94 0 00-1.125.172c-.36.11-.656.234-.883.367-.218.133-.43.281-.617.453a3.84 3.84 0 00-.367.367c-.055.07-.101.125-.133.164l1.196 1.196.18-.188c.124-.14.327-.273.617-.406a2.33 2.33 0 01.968-.203c.43 0 .766.11 1 .312.242.211.36.477.36.805l-2.485.445c-.718.133-1.289.414-1.703.836-.406.43-.617.961-.617 1.602 0 .625.25 1.148.734 1.586.492.437 1.125.648 1.907.648.406 0 .796-.086 1.171-.258.375-.171.625-.312.735-.421a3.8 3.8 0 00.258-.274l.007.797zm-1.609-1.602c-.687 0-1.039-.265-1.039-.796 0-.493.297-.79.883-.883l1.758-.32v.242c0 .554-.141.984-.43 1.296-.29.313-.68.461-1.172.461zm12.813-4.796l-.243-.227a2.539 2.539 0 01-.484-.648c-.156-.282-.234-.547-.234-.805 0-.438.125-.781.39-1.047.258-.266.61-.398 1.047-.398.453 0 .82.164 1.102.484.28.32.422.773.422 1.36h-1.36v1.921h1.36v3.196c0 1.812.82 2.718 2.476 2.718a3.872 3.872 0 001.445-.234v-1.844l-.101.031a1.746 1.746 0 01-.703.133.95.95 0 01-.688-.258.802.802 0 01-.273-.625V6.242h1.601V4.32h-1.601c0-1.148-.328-2.062-.985-2.742-.656-.672-1.53-1.016-2.617-1.016-1.062 0-1.914.305-2.554.899-.641.594-.961 1.36-.961 2.297V4h-.243c-1.156 0-2.148.414-2.984 1.227-.844.812-1.258 1.765-1.258 2.851 0 1.094.414 2.047 1.258 2.86.836.812 1.828 1.218 2.984 1.218.407 0 .79-.054 1.157-.172a4.3 4.3 0 00.898-.382c.227-.141.438-.297.64-.477a3.11 3.11 0 00.376-.383c.054-.078.101-.133.133-.18L48.57 9.204l-.21.266c-.15.172-.383.344-.704.515a2.1 2.1 0 01-1.008.258 1.965 1.965 0 01-1.46-.633 2.093 2.093 0 01-.618-1.523c0-.594.203-1.11.61-1.531a1.97 1.97 0 012.476-.344c.32.187.532.344.625.46.094.126.164.22.211.29l1.36-1.36zM63.766 6.64c.359 0 .664.132.914.398.242.266.367.617.367 1.04 0 .429-.125.78-.367 1.046-.25.266-.555.398-.914.398-.383 0-.703-.132-.97-.406-.265-.273-.398-.617-.398-1.039 0-.414.133-.758.391-1.031.266-.266.586-.406.977-.406zm-.243-1.524c-.734 0-1.367.29-1.914.852-.539.562-.812 1.265-.812 2.11 0 .858.273 1.562.82 2.124a2.65 2.65 0 001.985.836c.43 0 .812-.086 1.156-.258.344-.172.555-.32.648-.43.094-.109.156-.195.203-.273l.172.242c.117.164.328.328.633.485.313.156.648.234 1.023.234.797 0 1.446-.297 1.961-.89.516-.594.766-1.422.766-2.47 0-1.617-.602-3.007-1.82-4.171-1.219-1.164-2.719-1.75-4.5-1.75a5.95 5.95 0 00-3.086.86 6.47 6.47 0 00-2.297 2.296 5.96 5.96 0 00-.86 3.086c0 1.102.29 2.133.86 3.094a6.47 6.47 0 002.297 2.297c.96.57 1.992.851 3.086.851.453 0 .89-.047 1.312-.14a5.378 5.378 0 001.047-.329 5.55 5.55 0 00.766-.421c.242-.157.398-.266.476-.329.078-.062.125-.109.157-.14l-.883-1.125-.32.242c-.204.164-.54.328-1.024.484a4.861 4.861 0 01-1.523.235c-1.282 0-2.375-.453-3.282-1.375-.906-.914-1.36-2.031-1.36-3.344 0-1.313.454-2.422 1.36-3.344.907-.914 2-1.375 3.282-1.375 1.343 0 2.46.43 3.367 1.29.898.859 1.351 1.898 1.351 3.109-.007 1.28-.382 1.922-1.125 1.922a.843.843 0 01-.625-.258.836.836 0 01-.25-.625V5.203h-1.523v.555l-.14-.156c-.11-.11-.29-.211-.54-.32a2.085 2.085 0 00-.844-.165zM74.258.797h-2.164V12h2.164V7.922c0-.586.14-1.04.43-1.36.28-.32.671-.484 1.164-.484.445 0 .812.149 1.093.445.282.297.43.68.43 1.157V12h2.156V7.437c0-1.046-.289-1.882-.851-2.507-.563-.617-1.297-.93-2.188-.93-.43 0-.836.11-1.226.313-.391.21-.641.375-.75.5-.11.125-.204.226-.266.312l.008-4.328zm9.594 0h-2.165V12h2.165V.797zm9.601 8l.078-.875c0-1.117-.375-2.047-1.117-2.797-.75-.75-1.68-1.125-2.797-1.125-1.125 0-2.086.406-2.883 1.203-.804.797-1.203 1.758-1.203 2.875 0 1.125.406 2.086 1.219 2.883.813.797 1.79 1.195 2.945 1.195.407 0 .797-.047 1.18-.14.383-.094.695-.196.938-.32.234-.126.46-.266.68-.423.21-.156.35-.265.413-.328l.149-.148-1.118-1.438-.226.243c-.14.164-.39.328-.734.484a2.686 2.686 0 01-1.125.234c-.563 0-1.032-.14-1.399-.437-.375-.297-.601-.656-.68-1.086h5.68zm-3.836-2.953c.453 0 .844.14 1.156.406.313.273.516.617.602 1.031h-3.602a2.1 2.1 0 01.672-1.039c.32-.265.711-.398 1.172-.398zm10.883 5.515c0 .641-.188 1.149-.563 1.524-.374.375-.874.555-1.515.555-.43 0-.828-.094-1.203-.282-.375-.187-.617-.344-.727-.46a6.745 6.745 0 01-.242-.29l-1.36 1.281.15.18c.085.11.226.25.429.422.203.164.445.328.71.484a4.63 4.63 0 001.032.415c.406.117.836.18 1.289.18 1.188 0 2.18-.391 2.969-1.157.789-.766 1.187-1.719 1.187-2.844V4.164H100.5v.961l-.242-.29c-.156-.179-.43-.358-.82-.546a2.877 2.877 0 00-1.258-.281c-.899 0-1.711.383-2.438 1.164a3.905 3.905 0 00-1.086 2.758c0 1.054.36 1.968 1.086 2.75.727.78 1.54 1.172 2.438 1.172.28 0 .562-.047.828-.125.265-.079.484-.172.648-.274a3.35 3.35 0 00.461-.344c.141-.125.235-.218.281-.265.047-.047.079-.086.102-.117v.632zm-3.602-3.437c0-.555.165-1.016.508-1.375.344-.36.758-.54 1.25-.54s.922.18 1.29.556c.366.375.554.828.554 1.359s-.188.992-.555 1.367c-.367.375-.797.563-1.289.563a1.67 1.67 0 01-1.25-.547c-.344-.367-.508-.828-.508-1.383zM109.055 12h2.156V7.117c0-.89-.313-1.633-.938-2.226-.625-.594-1.437-.891-2.421-.891a3.94 3.94 0 00-1.125.172 4.15 4.15 0 00-.883.367c-.219.133-.43.281-.617.453a3.855 3.855 0 00-.368.367c-.054.07-.101.125-.132.164l1.195 1.196.18-.188c.125-.14.328-.273.617-.406.297-.133.617-.203.969-.203.429 0 .765.11 1 .312.242.211.359.477.359.805l-2.485.445c-.718.133-1.289.414-1.703.836-.406.43-.617.961-.617 1.602 0 .625.25 1.148.735 1.586.492.437 1.125.648 1.906.648.406 0 .797-.086 1.172-.258.375-.171.625-.312.734-.421.109-.11.195-.196.258-.274l.008.797zm-1.61-1.602c-.687 0-1.039-.265-1.039-.796 0-.493.297-.79.883-.883l1.758-.32v.242c0 .554-.141.984-.43 1.296-.289.313-.679.461-1.172.461zm8.094-9.601h-2.164V12h2.164V.797zm7.602 4.406l-.274-.305c-.179-.187-.5-.39-.953-.593A3.614 3.614 0 00120.422 4c-.86 0-1.578.258-2.164.766-.586.515-.875 1.086-.875 1.71 0 .485.117.891.367 1.204.242.32.539.554.891.703.351.156.711.281 1.07.39.359.11.656.235.906.375.242.141.367.32.367.532 0 .218-.093.39-.265.523-.172.133-.43.195-.774.195-.312 0-.617-.078-.906-.242-.297-.164-.484-.297-.578-.39a1.363 1.363 0 01-.195-.243l-1.204 1.196.11.164c.078.094.203.21.375.351s.383.274.617.414c.234.141.539.266.914.36.375.101.766.148 1.188.148.968 0 1.726-.234 2.281-.71.555-.47.836-1.063.836-1.766 0-.485-.125-.899-.367-1.227a2.173 2.173 0 00-.907-.719 12.511 12.511 0 00-1.07-.382 4.412 4.412 0 01-.891-.368c-.25-.132-.367-.304-.367-.507 0-.165.086-.313.258-.438.172-.125.406-.195.703-.195.235 0 .461.062.688.18.218.117.367.21.437.28.071.079.125.133.156.173l1.118-1.274zm1.601 5.758c0 .32.125.601.375.836.25.242.547.36.906.36.352 0 .657-.118.907-.36.25-.235.375-.516.375-.836 0-.32-.125-.602-.375-.844a1.29 1.29 0 00-.907-.36c-.359 0-.656.126-.906.36-.25.242-.375.524-.375.844zm6.399-6.805h-2.157V12h2.157V7.922c0-.586.14-1.04.429-1.36.289-.32.68-.484 1.172-.484.446 0 .813.149 1.094.445.281.297.422.68.422 1.157V12h2.156V7.437c0-1.046-.281-1.882-.844-2.507-.562-.617-1.297-.93-2.195-.93-.422 0-.828.11-1.219.313-.39.21-.64.375-.758.5-.109.125-.203.226-.265.312l.008-.969zm14.797 4.64l.078-.874c0-1.117-.375-2.047-1.118-2.797-.75-.75-1.679-1.125-2.796-1.125-1.125 0-2.086.406-2.883 1.203-.805.797-1.203 1.758-1.203 2.875 0 1.125.406 2.086 1.218 2.883.813.797 1.789 1.195 2.946 1.195.406 0 .797-.047 1.179-.14.383-.094.696-.196.938-.32.234-.126.461-.266.68-.423.211-.156.351-.265.414-.328l.148-.148-1.117-1.438-.227.243c-.14.164-.39.328-.734.484a2.687 2.687 0 01-1.125.234c-.563 0-1.031-.14-1.398-.437-.376-.297-.602-.656-.68-1.086h5.68zm-3.836-2.952c.453 0 .843.14 1.156.406.312.273.515.617.601 1.031h-3.601c.125-.422.351-.773.672-1.039.32-.265.711-.398 1.172-.398zm6.484-2.563c0 .313-.086.563-.258.75a.803.803 0 01-.625.29h-.719v1.921h1.36v3.196c0 1.812.82 2.718 2.476 2.718a3.875 3.875 0 001.446-.234v-1.844l-.094.031a1.801 1.801 0 01-.711.133.952.952 0 01-.688-.258.823.823 0 01-.265-.625V6.242h1.594V4.32h-1.594V1.844h-1.922V3.28z" fill="#24A3FF"/></svg>