<svg width="78" height="31" fill="none" xmlns="http://www.w3.org/2000/svg"><path d="M5.176 28.546a1.95 1.95 0 00-.567-1.412 1.836 1.836 0 00-1.367-.577c-.485 0-.905.153-1.259.463a1.914 1.914 0 00-.648 1.117H.817v-1.498H0v3.813h.817V28.9h.518c.081.463.3.855.648 1.166.349.31.768.468 1.259.468.533 0 .991-.19 1.367-.577a1.94 1.94 0 00.567-1.411zm-.818 0c0 .36-.109.659-.326.893a1.043 1.043 0 01-1.575 0c-.223-.234-.332-.534-.332-.893 0-.36.109-.66.332-.9.218-.234.48-.354.785-.354.305 0 .566.12.79.355.217.24.326.539.326.899zm2.122-1.907v3.814h.817V29.2h.79c.393 0 .72-.126.975-.37.257-.246.387-.551.387-.91 0-.366-.13-.665-.387-.916-.261-.245-.582-.365-.975-.365H6.48zm1.58.735c.163 0 .3.055.409.158a.515.515 0 01.163.387.515.515 0 01-.163.387.572.572 0 01-.409.158h-.763v-1.09h.763zm6.07 3.079v-3.814h-.707l-1.88 2.424V26.64h-.817v3.814h.708l1.88-2.425v2.425h.817zm1.032-.736v1.526h.817v-.79h2.289v.79h.817v-1.526h-.463V26.64h-2.643v1.171c0 .256-.021.496-.065.72a3.656 3.656 0 01-.142.544c-.054.131-.114.25-.185.365-.07.11-.114.18-.142.213-.032.027-.049.054-.065.065h-.218zm1.635-1.907v-.436h1.008v2.343h-1.608l.066-.065a1.44 1.44 0 00.147-.218c.06-.104.114-.224.174-.36.06-.136.11-.321.147-.545a3.76 3.76 0 00.066-.719zm6.859 2.643v-3.814h-.708l-1.88 2.424V26.64h-.817v3.814h.708l1.88-2.425v2.425h.817zm2.284-3.814h-.816v1.171c0 .458.12.812.36 1.063.244.256.577.381 1.002.381.365 0 .664-.07.899-.218v1.417h.817v-3.814h-.817v1.607l-.093.071c-.06.043-.153.087-.278.136a1.187 1.187 0 01-.392.066c-.218 0-.387-.06-.507-.18-.114-.126-.174-.3-.174-.529v-1.17zm7.053 0h-.817v1.525H30.54V26.64h-.817v3.814h.817V28.9h1.635v1.553h.817v-3.814zm3.484 2.206h-.926l.463-1.253.463 1.253zm.273.709l.327.899h.871l-1.498-3.814h-.872l-1.498 3.814h.872l.327-.9h1.47zm4.761-2.915h-.817v3.814h.817v-1.09l.49-.545 1.117 1.635h.954l-1.526-2.234 1.417-1.58h-.954l-1.498 1.662v-1.662zm4.219 1.907c0-.35.12-.649.36-.889.234-.245.523-.364.866-.364.344 0 .633.12.867.364.24.24.36.54.36.889 0 .354-.12.648-.36.888a1.148 1.148 0 01-.867.365c-.343 0-.632-.12-.866-.365-.24-.24-.36-.534-.36-.888zm-.844 0a1.9 1.9 0 00.6 1.405c.397.387.888.583 1.47.583.583 0 1.074-.196 1.471-.583a1.9 1.9 0 00.6-1.405 1.89 1.89 0 00-.6-1.406c-.397-.387-.888-.583-1.47-.583-.584 0-1.074.196-1.471.583a1.89 1.89 0 00-.6 1.406zm7.488-.246l-1.307-1.661h-.736v3.814h.817v-2.534l1.226 1.553 1.226-1.564v2.545h.817v-3.814h-.724l-1.319 1.662zm6.806-1.661h-3.242v3.814h.817v-3.079h1.607v3.079h.818v-3.814zm3.485 2.206h-.926l.463-1.253.463 1.253zm.272.709l.327.899h.872l-1.498-3.814h-.872l-1.498 3.814h.871l.327-.9h1.471zm5.555-2.915h-.818v1.525H66.04V26.64h-.817v3.814h.817V28.9h1.634v1.553h.818v-3.814zm2.339 0h-.817v3.814h.817v-3.814zm4.355 0h-1.689c-.38 0-.692.12-.937.36-.245.24-.37.539-.37.893 0 .153.027.294.07.43.05.137.104.24.17.316.06.077.125.147.207.213.076.065.13.109.163.125.027.011.055.027.07.033l-.816 1.444h.871l.736-1.335h.708v1.335h.817v-3.814zm-2.179 1.253a.506.506 0 01.518-.518h.844v1.008h-.844a.524.524 0 01-.37-.141.465.465 0 01-.148-.349z" fill="#fff"/><path d="M2.49 0H0v17.988h2.49v-6.674c0-1.129.281-2.02.843-2.646.562-.628 1.33-.954 2.283-.954.818 0 1.502.301 2.051.878.55.59.83 1.33.83 2.22V18H11v-7.187c0-1.656-.452-2.96-1.355-3.94-.904-.977-2.088-1.467-3.528-1.467-.416 0-.83.05-1.234.163a5.2 5.2 0 00-1.013.377 5.139 5.139 0 00-.757.464c-.232.175-.39.3-.464.376-.073.075-.134.126-.158.163V0z" fill="#F0145A"/><path d="M16.567 0H14v17.973h2.567V0zm15.144 12.709l.129-1.284c0-1.72-.565-3.158-1.72-4.313-1.156-1.156-2.594-1.72-4.314-1.72-1.72 0-3.21.616-4.442 1.848-1.232 1.233-1.849 2.696-1.849 4.442 0 1.797.642 3.338 1.9 4.621 1.259 1.284 2.773 1.926 4.52 1.926.667 0 1.283-.103 1.9-.282.615-.206 1.129-.411 1.488-.617a8.46 8.46 0 001.104-.77c.334-.282.565-.488.668-.616.103-.128.18-.205.231-.282l-1.669-1.67-.385.488c-.257.309-.693.617-1.31.95a4.3 4.3 0 01-2.028.488c-1.001 0-1.848-.308-2.567-.95-.72-.642-1.156-1.386-1.284-2.26h9.628zm-5.905-5.135c.95 0 1.72.282 2.362.822.616.564 1.001 1.258 1.155 2.13h-7.137c.23-.872.642-1.566 1.284-2.13.616-.54 1.412-.822 2.336-.822zm17.879 9.654c0 1.13-.333 2.054-1.027 2.773-.667.693-1.514 1.052-2.567 1.052a4.85 4.85 0 01-1.36-.205 4.04 4.04 0 01-1.053-.462c-.283-.18-.54-.36-.796-.59l-.462-.463c-.078-.077-.129-.154-.18-.205l-1.67 1.669.206.256c.129.18.36.411.668.668.308.23.667.488 1.078.744.411.232.925.437 1.566.617.642.18 1.31.282 2.003.282 1.746 0 3.184-.59 4.39-1.771 1.181-1.207 1.772-2.645 1.772-4.39V5.647h-2.568v1.284l-.436-.385c-.282-.257-.719-.514-1.335-.77a5.085 5.085 0 00-1.951-.385c-1.566 0-2.902.59-4.057 1.797-1.155 1.207-1.72 2.644-1.72 4.365 0 1.72.565 3.158 1.72 4.364 1.155 1.207 2.49 1.798 4.057 1.798.436 0 .847-.052 1.283-.155a8.626 8.626 0 001.027-.385 3.83 3.83 0 00.77-.462c.232-.18.412-.308.463-.36l.18-.179v1.053zm-6.932-5.674c0-1.079.334-1.977 1.027-2.722.694-.745 1.515-1.13 2.44-1.13.924 0 1.745.385 2.438 1.13.668.745 1.027 1.643 1.027 2.722 0 1.078-.359 1.976-1.027 2.721-.693.745-1.514 1.13-2.439 1.13-.924 0-1.745-.385-2.439-1.13-.693-.745-1.027-1.643-1.027-2.721zm22.901 6.418v-7.959c0-1.31-.487-2.413-1.437-3.286-.95-.899-2.183-1.335-3.698-1.335-.59 0-1.18.077-1.745.23-.565.18-1.028.36-1.361.565a6.35 6.35 0 00-.976.72 8.135 8.135 0 00-.59.539c-.078.102-.154.18-.206.256l1.669 1.67.334-.437c.205-.283.565-.54 1.104-.822.539-.282 1.13-.41 1.771-.41.745 0 1.361.23 1.849.667.488.436.719 1.001.719 1.643l-4.493.77c-1.104.18-2.003.617-2.62 1.31-.641.693-.975 1.54-.975 2.542 0 .95.411 1.771 1.233 2.49.847.745 1.874 1.104 3.132 1.104.437 0 .847-.051 1.258-.18.437-.102.77-.23 1.053-.36a3.85 3.85 0 00.77-.461c.231-.18.385-.308.488-.36.077-.077.128-.154.154-.18v1.284h2.567zm-5.905-2.054c-.667 0-1.207-.154-1.592-.462-.41-.308-.59-.667-.59-1.078 0-.437.128-.822.41-1.104a2.06 2.06 0 011.13-.565l3.98-.642v.257c0 1.155-.283 2.028-.873 2.67-.59.616-1.412.924-2.465.924zM65.32 0h-2.567v17.973h2.567V0zm11.675 7.06l-.155-.18a5.53 5.53 0 00-.487-.41c-.231-.18-.488-.334-.77-.514-.283-.154-.668-.282-1.13-.41a6.667 6.667 0 00-1.438-.154c-1.258 0-2.285.359-3.107 1.078-.847.744-1.258 1.566-1.258 2.516 0 .693.154 1.258.462 1.772.308.488.694.847 1.181 1.052.462.231.976.463 1.515.642.54.18 1.027.334 1.515.462.462.154.847.334 1.155.565.308.231.463.54.463.899 0 .462-.18.847-.514 1.13-.334.256-.847.41-1.54.41-.565 0-1.13-.154-1.67-.41-.539-.283-.872-.514-1.052-.694a9.942 9.942 0 01-.36-.436l-1.668 1.669.18.23a3.9 3.9 0 00.564.54c.283.231.59.436.924.642.36.205.822.385 1.361.539.54.154 1.13.231 1.72.231 1.361 0 2.491-.385 3.338-1.13.847-.744 1.284-1.668 1.284-2.721 0-.693-.154-1.284-.462-1.746-.308-.488-.693-.847-1.181-1.078a8.95 8.95 0 00-1.515-.642c-.54-.18-1.027-.36-1.515-.463a3.465 3.465 0 01-1.155-.564 1.085 1.085 0 01-.462-.899c0-.334.154-.642.487-.899.308-.256.745-.385 1.31-.385.41 0 .822.103 1.207.283.41.18.693.334.821.462l.283.282 1.669-1.669z" fill="#fff"/></svg>