<svg width="689" height="644" fill="none" xmlns="http://www.w3.org/2000/svg"><g clip-path="url(#clip0_3_30007)" fill-rule="evenodd" clip-rule="evenodd" fill="#fff" fill-opacity=".1"><path d="M564.195 304.898h-3.6l10.796-33.455c.723-2.182 2.789-3.672 5.224-3.704 2.017-.011 3.113-.009 5.133 0 4.372.019 6.055 1.739 7.075 4.572.49 1.36.532 3.278.131 4.55-1.039 3.196-1.285 3.937-2.338 7.127-.689 2.053-2.549 3.426-4.801 3.609 0 0 3.024-9.152 3.967-12.142.57-1.866-.524-4.412-3.4-4.412-2.012-.024-3.27-.011-5.277 0-1.163.015-2.183.725-2.541 1.806l-10.369 32.049zm14.014-9.583h7.924l-4.475 13.61-3.632-.024 3.37-10.273h-4.29l1.103-3.313z"/><path d="M595.851 277.982h3.602l-10.822 33.455c-.725 2.182-2.793 3.672-5.229 3.704-2.019.011-3.115.009-5.137 0-4.374-.019-6.057-1.739-7.076-4.572-.489-1.36-.53-3.278-.128-4.55 1.042-3.196 1.288-3.937 2.343-7.127.691-2.053 2.553-3.426 4.807-3.609 0 0-3.032 9.152-3.977 12.142-.571 1.866.521 4.412 3.4 4.412 2.013.024 3.271.011 5.28 0 1.163-.015 2.184-.725 2.543-1.806l10.394-32.049zM393.038 500.124h-7.924l4.476-13.61 3.631.024-3.369 10.273h4.29l-1.104 3.313z"/><path d="M375.396 517.457h-3.602l10.822-33.455c.725-2.182 2.793-3.672 5.229-3.704 2.019-.011 3.115-.009 5.137 0 4.374.019 6.057 1.739 7.076 4.572.49 1.36.531 3.278.129 4.55-1.042 3.196-1.289 3.937-2.344 7.127-.69 2.053-2.552 3.426-4.806 3.609 0 0 3.031-9.152 3.977-12.142.571-1.866-.522-4.412-3.4-4.412-2.013-.024-3.272-.011-5.28 0-1.163.015-2.185.725-2.544 1.806l-10.394 32.049zm126.326-113.278h-7.924l4.475-13.609 3.632.023-3.37 10.274h4.29l-1.103 3.312z"/><path d="M484.08 421.513h-3.602l10.822-33.455c.725-2.183 2.793-3.672 5.229-3.704 2.019-.011 3.115-.009 5.136 0 4.375.019 6.058 1.739 7.077 4.571.489 1.361.53 3.279.128 4.551-1.042 3.196-1.289 3.936-2.343 7.126-.691 2.054-2.553 3.427-4.807 3.61 0 0 3.032-9.152 3.977-12.142.571-1.866-.522-4.412-3.4-4.412-2.013-.024-3.271-.011-5.28 0-1.163.015-2.184.725-2.543 1.806l-10.394 32.049zm42.801 11.236h7.924l-4.476 13.609-3.631-.023 3.37-10.274h-4.291l1.104-3.312z"/><path d="M544.523 415.415h3.602l-10.822 33.455c-.725 2.183-2.793 3.672-5.229 3.705-2.019.01-3.115.008-5.137 0-4.374-.02-6.057-1.74-7.076-4.572-.489-1.361-.531-3.278-.129-4.55 1.043-3.197 1.289-3.937 2.344-7.127.691-2.053 2.553-3.427 4.807-3.61 0 0-3.032 9.152-3.977 12.142-.571 1.866.521 4.413 3.399 4.413 2.014.023 3.272.01 5.28 0 1.164-.015 2.185-.726 2.544-1.806l10.394-32.05zM287.951 552.327h7.924l-4.476 13.61-3.631-.024 3.369-10.273h-4.29l1.104-3.313z"/><path d="M305.593 534.994h3.602l-10.822 33.455c-.725 2.182-2.794 3.672-5.23 3.704-2.018.011-3.115.008-5.136 0-4.375-.02-6.058-1.739-7.076-4.572-.49-1.36-.531-3.278-.129-4.55 1.042-3.196 1.289-3.937 2.344-7.127.69-2.053 2.552-3.426 4.806-3.609 0 0-3.031 9.152-3.977 12.142-.571 1.866.522 4.412 3.4 4.412 2.013.024 3.272.011 5.28 0 1.163-.015 2.184-.725 2.544-1.806l10.394-32.049zm120.235-59.2h7.924l-4.476 13.61-3.631-.024 3.369-10.274h-4.29l1.104-3.312z"/><path d="M443.47 458.461h3.602l-10.822 33.454c-.725 2.183-2.794 3.672-5.23 3.705-2.019.01-3.115.008-5.136 0-4.375-.02-6.058-1.739-7.076-4.572-.49-1.36-.531-3.278-.129-4.55 1.042-3.197 1.289-3.937 2.344-7.127.69-2.053 2.552-3.426 4.806-3.609 0 0-3.032 9.152-3.977 12.141-.571 1.866.522 4.413 3.4 4.413 2.013.023 3.272.011 5.28 0 1.163-.015 2.184-.726 2.544-1.806l10.394-32.049zm-97.74 133.948h7.924l-4.476 13.61-3.631-.024 3.37-10.274h-4.291l1.104-3.312z"/><path d="M363.372 575.076h3.602l-10.822 33.454c-.725 2.183-2.794 3.672-5.23 3.705-2.019.01-3.115.008-5.136 0-4.375-.02-6.058-1.739-7.076-4.572-.49-1.36-.531-3.278-.129-4.55 1.042-3.197 1.289-3.937 2.344-7.127.69-2.053 2.552-3.426 4.806-3.609 0 0-3.032 9.152-3.977 12.141-.571 1.866.522 4.413 3.4 4.413 2.013.023 3.272.011 5.28 0 1.163-.015 2.184-.726 2.544-1.806l10.394-32.049zm266.029-281.439h-3.6l10.796-33.455c.723-2.183 2.789-3.672 5.224-3.704 2.018-.011 3.113-.009 5.134 0 4.371.019 6.055 1.739 7.074 4.571.49 1.361.533 3.278.132 4.55-1.04 3.197-1.286 3.937-2.338 7.127-.689 2.053-2.55 3.427-4.802 3.61 0 0 3.024-9.152 3.967-12.142.57-1.866-.523-4.413-3.4-4.413-2.012-.023-3.27-.01-5.277 0-1.162.015-2.183.726-2.541 1.806l-10.369 32.05zm13.996-9.583h7.924l-4.475 13.609-3.632-.023 3.37-10.274h-4.291l1.104-3.312z"/><path d="M661.039 266.72h3.602l-10.822 33.455c-.725 2.183-2.793 3.672-5.229 3.704-2.019.011-3.115.009-5.137 0-4.374-.019-6.057-1.739-7.076-4.571-.489-1.361-.531-3.278-.129-4.55 1.043-3.197 1.289-3.937 2.344-7.127.691-2.053 2.553-3.427 4.807-3.61 0 0-3.032 9.152-3.977 12.142-.572 1.866.521 4.413 3.399 4.413 2.013.023 3.272.01 5.28 0 1.164-.016 2.185-.726 2.544-1.806l10.394-32.05zm16.286 29.735h-7.924l4.476-13.609 3.631.023-3.369 10.274h4.29l-1.104 3.312z"/><path d="M659.683 313.789h-3.602l10.822-33.455c.725-2.183 2.794-3.672 5.23-3.704 2.019-.011 3.115-.009 5.136 0 4.375.019 6.058 1.739 7.076 4.571.49 1.361.531 3.278.129 4.55-1.042 3.197-1.289 3.937-2.344 7.127-.69 2.053-2.552 3.427-4.806 3.61 0 0 3.032-9.152 3.977-12.142.571-1.866-.522-4.412-3.4-4.412-2.013-.024-3.272-.011-5.28 0-1.163.015-2.184.725-2.544 1.805l-10.394 32.05zM488.525 509.014h-7.924l4.476-13.609 3.631.023-3.369 10.274h4.29l-1.104 3.312z"/><path d="M470.883 526.348h-3.601l10.822-33.455c.725-2.183 2.793-3.672 5.229-3.704 2.019-.011 3.115-.009 5.136 0 4.375.019 6.058 1.739 7.077 4.571.489 1.361.53 3.278.128 4.551-1.042 3.196-1.289 3.936-2.343 7.126-.691 2.054-2.553 3.427-4.807 3.61 0 0 3.032-9.152 3.977-12.142.571-1.866-.522-4.412-3.4-4.412-2.013-.024-3.271-.011-5.28 0-1.163.015-2.184.725-2.543 1.805l-10.395 32.05zm-37.591-104.49h7.924l-4.476 13.61-3.631-.024 3.37-10.274h-4.291l1.104-3.312z"/><path d="M450.934 404.525h3.602l-10.822 33.454c-.725 2.183-2.793 3.672-5.229 3.705-2.019.01-3.115.008-5.137 0-4.374-.02-6.057-1.74-7.076-4.572-.489-1.36-.531-3.278-.129-4.55 1.043-3.197 1.289-3.937 2.344-7.127.691-2.053 2.553-3.427 4.807-3.609 0 0-3.032 9.152-3.977 12.141-.572 1.866.521 4.413 3.399 4.413 2.014.023 3.272.01 5.28 0 1.164-.015 2.185-.726 2.544-1.806l10.394-32.049zM248.121 626.667h-7.924l4.475-13.61 3.632.024-3.37 10.273h4.291l-1.104 3.313z"/><path d="M230.479 644h-3.602l10.822-33.455c.725-2.182 2.793-3.672 5.229-3.704 2.019-.011 3.115-.009 5.137 0 4.374.019 6.057 1.739 7.076 4.571.489 1.361.531 3.279.128 4.551-1.042 3.196-1.288 3.936-2.343 7.126-.691 2.054-2.553 3.427-4.807 3.61 0 0 3.032-9.152 3.977-12.142.571-1.866-.521-4.412-3.399-4.412-2.014-.024-3.272-.011-5.281 0-1.163.015-2.184.725-2.543 1.806L230.479 644zm344.005-304.129h-7.924l4.476-13.61 3.631.024-3.369 10.273h4.29l-1.104 3.313z"/><path d="M556.842 357.204h-3.602l10.822-33.455c.725-2.182 2.794-3.672 5.23-3.704 2.019-.011 3.115-.008 5.136 0 4.375.02 6.058 1.739 7.076 4.572.49 1.36.531 3.278.129 4.55-1.042 3.196-1.289 3.937-2.344 7.127-.69 2.053-2.552 3.426-4.806 3.609 0 0 3.032-9.152 3.977-12.142.571-1.866-.522-4.412-3.4-4.412-2.013-.024-3.272-.011-5.28 0-1.163.015-2.184.725-2.544 1.806l-10.394 32.049zM155.409 479.45h-3.6l10.799-33.455c.723-2.183 2.789-3.672 5.224-3.704 2.018-.011 3.113-.009 5.134 0 4.372.019 6.055 1.739 7.075 4.571.49 1.361.532 3.279.131 4.551-1.04 3.196-1.286 3.936-2.339 7.126-.689 2.054-2.549 3.427-4.802 3.61 0 0 3.025-9.152 3.968-12.142.57-1.866-.523-4.412-3.4-4.412-2.012-.024-3.27-.011-5.277 0-1.163.015-2.183.725-2.541 1.806l-10.372 32.049zm14.017-9.583h7.924l-4.476 13.61-3.632-.024 3.37-10.273h-4.29l1.104-3.313z"/><path d="M187.069 452.534h3.602l-10.824 33.454c-.725 2.183-2.793 3.672-5.229 3.705-2.019.01-3.116.008-5.137 0-4.375-.02-6.058-1.739-7.076-4.572-.49-1.36-.531-3.278-.129-4.55 1.042-3.197 1.289-3.937 2.344-7.127.691-2.053 2.553-3.426 4.807-3.609 0 0-3.032 9.152-3.978 12.141-.571 1.866.522 4.413 3.4 4.413 2.013.023 3.272.011 5.28 0 1.164-.015 2.185-.726 2.544-1.806l10.396-32.049zm95.148-88.436h-7.925l4.477-13.61 3.632.024-3.371 10.273h4.291l-1.104 3.313z"/><path d="M264.573 381.431h-3.603l10.826-33.455c.725-2.182 2.793-3.672 5.23-3.704 2.019-.011 3.115-.009 5.137 0 4.374.019 6.057 1.739 7.076 4.572.489 1.36.53 3.278.128 4.55-1.042 3.196-1.289 3.937-2.344 7.126-.691 2.054-2.553 3.427-4.807 3.61 0 0 3.032-9.152 3.978-12.142.571-1.866-.521-4.412-3.4-4.412-2.013-.024-3.272-.011-5.28 0-1.163.015-2.185.725-2.544 1.806l-10.397 32.049zm14.034-9.583h7.924l-4.476 13.61-3.632-.024 3.37-10.273h-4.29l1.104-3.313z"/><path d="M296.25 354.515h3.602l-10.824 33.455c-.725 2.182-2.794 3.672-5.23 3.704-2.019.011-3.115.008-5.136 0-4.375-.02-6.058-1.739-7.077-4.572-.489-1.36-.53-3.278-.128-4.55 1.042-3.196 1.289-3.937 2.344-7.127.691-2.053 2.553-3.426 4.807-3.609 0 0-3.032 9.152-3.978 12.142-.571 1.866.521 4.412 3.4 4.412 2.013.024 3.272.011 5.28 0 1.163-.015 2.185-.725 2.544-1.806l10.396-32.049zm91.04-78.685h7.924l-4.476 13.61-3.631-.024 3.37-10.273h-4.291l1.104-3.313z"/><path d="M404.932 258.497h3.602l-10.822 33.455c-.725 2.182-2.793 3.672-5.229 3.704-2.019.011-3.115.009-5.137 0-4.374-.019-6.057-1.739-7.076-4.572-.489-1.36-.531-3.278-.129-4.55 1.043-3.196 1.289-3.937 2.344-7.126.691-2.054 2.553-3.427 4.807-3.61 0 0-3.032 9.152-3.977 12.142-.572 1.866.521 4.412 3.399 4.412 2.014.024 3.272.011 5.28 0 1.164-.015 2.185-.725 2.544-1.806l10.394-32.049zM202.119 480.712h-7.925l4.477-13.609 3.632.023-3.371 10.274h4.291l-1.104 3.312z"/><path d="M184.475 498.046h-3.603l10.826-33.455c.725-2.183 2.793-3.672 5.23-3.704 2.019-.011 3.115-.009 5.137 0 4.374.019 6.057 1.739 7.076 4.571.489 1.361.53 3.278.128 4.551-1.042 3.196-1.289 3.936-2.344 7.126-.691 2.054-2.553 3.427-4.807 3.61 0 0 3.032-9.152 3.978-12.142.571-1.866-.521-4.412-3.4-4.412-2.013-.024-3.272-.011-5.28 0-1.163.015-2.185.725-2.544 1.805l-10.397 32.05zm14.034-9.583h7.924l-4.476 13.61-3.632-.024 3.37-10.274h-4.29l1.104-3.312z"/><path d="M216.152 471.13h3.602l-10.824 33.454c-.725 2.183-2.793 3.672-5.23 3.705-2.019.01-3.115.008-5.136 0-4.375-.02-6.058-1.74-7.077-4.572-.489-1.36-.53-3.278-.128-4.55 1.042-3.197 1.289-3.937 2.344-7.127.691-2.053 2.553-3.427 4.807-3.609 0 0-3.032 9.152-3.978 12.141-.571 1.866.522 4.413 3.4 4.413 2.013.023 3.272.01 5.28 0 1.163-.015 2.185-.726 2.544-1.806l10.396-32.049zm94.742-85.547h-7.924l4.477-13.609 3.631.023-3.37 10.274h4.29l-1.104 3.312z"/><path d="M293.25 402.917h-3.602l10.826-33.455c.725-2.183 2.793-3.672 5.229-3.704 2.019-.011 3.116-.009 5.137 0 4.375.019 6.058 1.739 7.077 4.571.489 1.361.53 3.278.128 4.55-1.043 3.197-1.289 3.937-2.344 7.127-.691 2.053-2.554 3.427-4.808 3.61 0 0 3.033-9.152 3.979-12.142.571-1.866-.522-4.413-3.4-4.413-2.013-.023-3.272-.01-5.28 0-1.164.016-2.185.726-2.544 1.806l-10.398 32.05zm14.034-9.584h7.925l-4.477 13.61-3.631-.024 3.37-10.273h-4.291l1.104-3.313z"/><path d="M324.927 376h3.602l-10.823 33.455c-.726 2.183-2.794 3.672-5.23 3.704-2.019.011-3.115.009-5.137 0-4.374-.019-6.057-1.739-7.076-4.571-.489-1.361-.531-3.278-.128-4.55 1.042-3.197 1.289-3.937 2.344-7.127.69-2.053 2.552-3.427 4.806-3.61 0 0-3.032 9.152-3.977 12.142-.571 1.866.521 4.413 3.4 4.413 2.013.023 3.271.01 5.28 0 1.163-.016 2.184-.726 2.544-1.806L324.927 376zm94.669-86.361h-7.925l4.477-13.61 3.632.024-3.371 10.273h4.291l-1.104 3.313z"/><path d="M401.952 306.972h-3.602l10.825-33.455c.726-2.182 2.794-3.672 5.23-3.704 2.019-.011 3.115-.008 5.137 0 4.375.02 6.058 1.739 7.076 4.572.49 1.36.531 3.278.129 4.55-1.043 3.196-1.29 3.937-2.345 7.127-.691 2.053-2.553 3.426-4.807 3.609 0 0 3.033-9.152 3.978-12.141.572-1.867-.521-4.413-3.399-4.413-2.014-.024-3.272-.011-5.281 0-1.163.015-2.184.725-2.544 1.806l-10.397 32.049zm14.034-9.583h7.924l-4.476 13.61-3.632-.024 3.371-10.273h-4.291l1.104-3.313z"/><path d="M433.629 280.056h3.602l-10.824 33.455c-.725 2.182-2.793 3.672-5.229 3.704-2.019.011-3.115.009-5.137 0-4.375-.019-6.058-1.739-7.076-4.572-.49-1.36-.531-3.278-.129-4.55 1.043-3.196 1.289-3.937 2.344-7.126.691-2.054 2.553-3.427 4.807-3.61 0 0-3.032 9.152-3.977 12.142-.572 1.866.521 4.412 3.399 4.412 2.014.024 3.272.011 5.281 0 1.163-.015 2.184-.725 2.543-1.806l10.396-32.049zM230.796 502.198h-7.924l4.477-13.609 3.631.023-3.37 10.274h4.29l-1.104 3.312z"/><path d="M213.152 519.531h-3.602l10.825-33.454c.726-2.183 2.794-3.672 5.23-3.704 2.019-.011 3.115-.009 5.137 0 4.375.019 6.058 1.739 7.077 4.571.489 1.361.53 3.278.128 4.55-1.043 3.197-1.289 3.937-2.345 7.127-.69 2.053-2.553 3.427-4.807 3.61 0 0 3.033-9.152 3.978-12.142.572-1.866-.521-4.413-3.399-4.413-2.013-.023-3.272-.01-5.281 0-1.163.015-2.184.726-2.543 1.806l-10.398 32.049zm14.034-9.582h7.925l-4.477 13.609-3.631-.024 3.37-10.273h-4.291l1.104-3.312z"/><path d="M244.829 492.615h3.602l-10.823 33.455c-.726 2.183-2.794 3.672-5.23 3.704-2.019.011-3.115.009-5.137 0-4.374-.019-6.057-1.739-7.076-4.571-.489-1.361-.531-3.278-.128-4.55 1.042-3.197 1.289-3.937 2.344-7.127.69-2.053 2.552-3.427 4.806-3.61 0 0-3.032 9.152-3.977 12.142-.571 1.866.521 4.413 3.399 4.413 2.014.023 3.272.01 5.281 0 1.163-.016 2.184-.726 2.544-1.806l10.395-32.05zm94.853-86.212h-7.924l4.477-13.609 3.631.023-3.37 10.274h4.29l-1.104 3.312z"/><path d="M322.038 423.737h-3.602l10.826-33.455c.725-2.183 2.793-3.672 5.229-3.704 2.019-.011 3.116-.009 5.137 0 4.375.019 6.058 1.739 7.077 4.571.489 1.361.53 3.278.128 4.55-1.043 3.197-1.289 3.937-2.344 7.127-.691 2.053-2.554 3.427-4.808 3.61 0 0 3.033-9.152 3.979-12.142.571-1.866-.522-4.412-3.4-4.412-2.013-.024-3.272-.011-5.28 0-1.164.015-2.185.725-2.544 1.805l-10.398 32.05zm14.034-9.583h7.925l-4.477 13.609-3.631-.023 3.37-10.274h-4.291l1.104-3.312z"/><path d="M353.716 396.82h3.602l-10.824 33.455c-.725 2.183-2.794 3.672-5.23 3.705-2.019.01-3.115.008-5.137 0-4.374-.02-6.057-1.74-7.076-4.572-.489-1.36-.53-3.278-.128-4.55 1.042-3.197 1.289-3.937 2.344-7.127.69-2.053 2.553-3.427 4.807-3.61 0 0-3.033 9.153-3.978 12.142-.571 1.866.521 4.413 3.4 4.413 2.013.023 3.271.01 5.28 0 1.163-.015 2.184-.726 2.544-1.806l10.396-32.05zm94.65-86.362h-7.925l4.477-13.609 3.632.023-3.371 10.274h4.291l-1.104 3.312z"/><path d="M430.722 327.792h-3.603l10.826-33.455c.725-2.183 2.794-3.672 5.23-3.704 2.019-.011 3.115-.009 5.137 0 4.374.019 6.057 1.739 7.076 4.571.489 1.361.53 3.278.128 4.55-1.042 3.197-1.289 3.937-2.344 7.127-.691 2.053-2.553 3.427-4.807 3.61 0 0 3.032-9.152 3.978-12.142.571-1.866-.521-4.413-3.4-4.413-2.013-.023-3.272-.01-5.28 0-1.163.016-2.185.726-2.544 1.806l-10.397 32.05zm14.034-9.583h7.924l-4.476 13.609-3.632-.023 3.37-10.274h-4.29l1.104-3.312z"/><path d="M462.399 300.875h3.602l-10.824 33.455c-.725 2.183-2.793 3.672-5.23 3.704-2.019.011-3.115.009-5.136 0-4.375-.019-6.058-1.739-7.077-4.571-.489-1.361-.53-3.278-.128-4.55 1.042-3.197 1.289-3.937 2.344-7.127.691-2.053 2.553-3.427 4.807-3.61 0 0-3.032 9.152-3.978 12.142-.571 1.866.522 4.413 3.4 4.413 2.013.023 3.272.01 5.28 0 1.163-.016 2.185-.726 2.544-1.806l10.396-32.05zM259.584 523.017h-7.924l4.477-13.61 3.631.024-3.37 10.273h4.29l-1.104 3.313z"/><path d="M241.94 540.35h-3.602l10.826-33.455c.725-2.182 2.793-3.672 5.229-3.704 2.019-.011 3.116-.008 5.137 0 4.375.019 6.058 1.739 7.077 4.572.489 1.36.53 3.278.128 4.55-1.043 3.196-1.289 3.937-2.344 7.127-.691 2.053-2.554 3.426-4.808 3.609 0 0 3.033-9.152 3.979-12.142.571-1.866-.522-4.412-3.4-4.412-2.013-.024-3.272-.011-5.28 0-1.164.015-2.185.725-2.544 1.806L241.94 540.35zm14.034-9.583h7.925l-4.477 13.61-3.631-.024 3.37-10.273h-4.291l1.104-3.313z"/><path d="M273.617 513.434h3.602l-10.823 33.455c-.726 2.182-2.794 3.672-5.23 3.704-2.019.011-3.115.009-5.137 0-4.374-.019-6.057-1.739-7.076-4.572-.489-1.36-.531-3.278-.128-4.55 1.042-3.196 1.289-3.937 2.344-7.126.69-2.054 2.552-3.427 4.806-3.61 0 0-3.032 9.152-3.977 12.142-.571 1.866.521 4.412 3.4 4.412 2.013.024 3.271.011 5.28 0 1.163-.015 2.184-.725 2.544-1.806l10.395-32.049zm96.365-86.88h-7.925l4.477-13.61 3.632.024-3.371 10.273h4.291l-1.104 3.313z"/><path d="M352.338 443.887h-3.603l10.826-33.454c.725-2.183 2.793-3.672 5.23-3.705 2.019-.011 3.115-.008 5.137 0 4.374.02 6.057 1.739 7.076 4.572.489 1.36.53 3.278.128 4.55-1.042 3.196-1.289 3.937-2.344 7.127-.691 2.053-2.553 3.426-4.807 3.609 0 0 3.032-9.152 3.978-12.141.571-1.867-.521-4.413-3.4-4.413-2.013-.024-3.272-.011-5.28 0-1.163.015-2.185.726-2.544 1.806l-10.397 32.049zm14.033-9.583h7.925l-4.476 13.61-3.632-.024 3.37-10.273h-4.29l1.103-3.313z"/><path d="M384.015 416.971h3.602l-10.824 33.455c-.725 2.182-2.794 3.672-5.23 3.704-2.019.011-3.115.009-5.136 0-4.375-.019-6.058-1.739-7.077-4.572-.489-1.36-.53-3.278-.128-4.55 1.042-3.196 1.289-3.936 2.344-7.126.691-2.054 2.553-3.427 4.807-3.61 0 0-3.032 9.152-3.978 12.142-.571 1.866.521 4.412 3.4 4.412 2.013.024 3.272.011 5.28 0 1.163-.015 2.185-.725 2.544-1.806l10.396-32.049zm94.669-86.361h-7.925l4.477-13.609 3.632.023-3.371 10.274h4.291l-1.104 3.312z"/><path d="M461.039 347.944h-3.602l10.826-33.455c.725-2.183 2.793-3.672 5.23-3.704 2.019-.011 3.115-.009 5.137 0 4.374.019 6.057 1.739 7.076 4.571.489 1.361.53 3.278.128 4.55-1.042 3.197-1.289 3.937-2.344 7.127-.691 2.053-2.553 3.427-4.807 3.61 0 0 3.032-9.152 3.978-12.142.571-1.866-.521-4.412-3.4-4.412-2.013-.024-3.272-.011-5.28 0-1.163.015-2.185.725-2.544 1.805l-10.398 32.05zm14.034-9.584h7.925l-4.476 13.609-3.632-.023 3.37-10.274h-4.29l1.103-3.312z"/><path d="M492.717 321.027h3.602l-10.824 33.455c-.725 2.182-2.793 3.672-5.23 3.704-2.019.011-3.115.008-5.136 0-4.375-.02-6.058-1.739-7.077-4.572-.489-1.36-.53-3.278-.128-4.55 1.042-3.196 1.289-3.937 2.344-7.127.691-2.053 2.553-3.426 4.807-3.609 0 0-3.032 9.152-3.978 12.141-.571 1.867.522 4.413 3.4 4.413 2.013.024 3.272.011 5.28 0 1.163-.015 2.185-.725 2.544-1.806l10.396-32.049zM209.454 430.036h-7.925l4.477-13.609 3.632.023-3.371 10.274h4.291l-1.104 3.312z"/><path d="M191.81 447.37h-3.602l10.825-33.455c.725-2.183 2.794-3.672 5.23-3.705 2.019-.01 3.115-.008 5.137 0 4.375.02 6.058 1.74 7.076 4.572.489 1.36.531 3.278.128 4.55-1.042 3.197-1.289 3.937-2.344 7.127-.691 2.053-2.553 3.427-4.807 3.61 0 0 3.033-9.153 3.978-12.142.571-1.866-.521-4.413-3.4-4.413-2.013-.023-3.271-.01-5.28 0-1.163.015-2.185.726-2.544 1.806l-10.397 32.05zm14.034-9.583h7.924l-4.476 13.609-3.632-.023 3.371-10.274h-4.291l1.104-3.312z"/><path d="M223.487 420.453h3.602l-10.824 33.455c-.725 2.183-2.793 3.672-5.229 3.704-2.019.011-3.115.009-5.137 0-4.375-.019-6.058-1.739-7.076-4.571-.49-1.361-.531-3.278-.129-4.551 1.042-3.196 1.289-3.936 2.344-7.126.691-2.054 2.553-3.427 4.807-3.61 0 0-3.032 9.152-3.977 12.142-.572 1.866.521 4.412 3.399 4.412 2.013.024 3.272.011 5.28 0 1.164-.015 2.185-.725 2.544-1.805l10.396-32.05zm95.148-88.509h-7.925l4.477-13.61 3.632.024-3.371 10.273h4.291l-1.104 3.313z"/><path d="M300.991 349.277h-3.602l10.825-33.455c.725-2.182 2.794-3.672 5.23-3.704 2.019-.011 3.115-.008 5.137 0 4.375.019 6.058 1.739 7.076 4.572.49 1.36.531 3.278.129 4.55-1.043 3.196-1.29 3.937-2.345 7.127-.691 2.053-2.553 3.426-4.807 3.609 0 0 3.033-9.152 3.978-12.142.572-1.866-.521-4.412-3.399-4.412-2.014-.024-3.272-.011-5.281 0-1.163.015-2.184.725-2.544 1.806l-10.397 32.049zm14.034-9.583h7.924l-4.476 13.609-3.632-.023 3.371-10.274h-4.291l1.104-3.312z"/><path d="M332.668 322.36h3.602l-10.824 33.455c-.725 2.183-2.793 3.672-5.229 3.704-2.019.011-3.115.009-5.137 0-4.375-.019-6.058-1.739-7.076-4.571-.49-1.361-.531-3.278-.129-4.551 1.043-3.196 1.289-3.936 2.344-7.126.691-2.054 2.553-3.427 4.807-3.61 0 0-3.032 9.152-3.977 12.142-.572 1.866.521 4.412 3.399 4.412 2.014.024 3.272.011 5.281 0 1.163-.015 2.184-.725 2.543-1.805l10.396-32.05zm-94.131 126.198h-7.925l4.477-13.61 3.632.024-3.371 10.274h4.291l-1.104 3.312z"/><path d="M220.893 465.892h-3.602l10.825-33.455c.725-2.183 2.794-3.672 5.23-3.705 2.019-.01 3.115-.008 5.137 0 4.375.02 6.058 1.74 7.076 4.572.489 1.36.531 3.278.128 4.55-1.042 3.197-1.289 3.937-2.344 7.127-.691 2.053-2.553 3.427-4.807 3.609 0 0 3.033-9.152 3.978-12.141.571-1.866-.521-4.413-3.4-4.413-2.013-.023-3.271-.01-5.28 0-1.163.015-2.185.726-2.544 1.806l-10.397 32.05zm14.034-9.583h7.924l-4.476 13.609-3.632-.023 3.371-10.274h-4.291l1.104-3.312z"/><path d="M252.57 438.975h3.602l-10.824 33.455c-.725 2.183-2.793 3.672-5.229 3.704-2.019.011-3.115.009-5.137 0-4.375-.019-6.058-1.739-7.076-4.571-.49-1.361-.531-3.278-.129-4.551 1.042-3.196 1.289-3.936 2.344-7.126.691-2.054 2.553-3.427 4.807-3.61 0 0-3.032 9.152-3.977 12.142-.572 1.866.521 4.412 3.399 4.412 2.013.024 3.272.011 5.28 0 1.164-.015 2.185-.725 2.544-1.805l10.396-32.05zm-80.558 116.393h3.599l-10.796 33.455c-.723 2.182-2.789 3.672-5.223 3.704-2.018.011-3.114.009-5.134 0-4.372-.019-6.055-1.739-7.075-4.572-.49-1.36-.532-3.278-.131-4.55 1.04-3.196 1.286-3.937 2.338-7.126.689-2.054 2.549-3.427 4.802-3.61 0 0-3.025 9.152-3.968 12.142-.57 1.866.524 4.412 3.4 4.412 2.013.024 3.27.011 5.277 0 1.163-.015 2.183-.725 2.542-1.806l10.369-32.049zm175.301-201.865h-7.925l4.477-13.61 3.632.024-3.371 10.273h4.291l-1.104 3.313z"/><path d="M329.668 370.836h-3.602l10.826-33.455c.725-2.182 2.793-3.672 5.23-3.704 2.019-.011 3.115-.008 5.136 0 4.375.02 6.058 1.739 7.077 4.572.489 1.36.53 3.278.128 4.55-1.042 3.196-1.289 3.937-2.344 7.127-.691 2.053-2.553 3.426-4.807 3.609 0 0 3.032-9.152 3.978-12.141.571-1.867-.522-4.413-3.4-4.413-2.013-.024-3.272-.011-5.28 0-1.164.015-2.185.726-2.544 1.806l-10.398 32.049zm14.034-9.583h7.925l-4.476 13.61-3.632-.024 3.37-10.273h-4.29l1.103-3.313z"/><path d="M361.346 343.92h3.602l-10.824 33.455c-.725 2.182-2.794 3.672-5.23 3.704-2.019.011-3.115.009-5.137 0-4.374-.019-6.057-1.739-7.076-4.572-.489-1.36-.53-3.278-.128-4.55 1.042-3.196 1.289-3.936 2.344-7.126.69-2.054 2.553-3.427 4.807-3.61 0 0-3.033 9.152-3.978 12.142-.571 1.866.521 4.412 3.4 4.412 2.013.024 3.272.011 5.28 0 1.163-.015 2.185-.725 2.544-1.806l10.396-32.049zm-94.131 126.198h-7.925l4.477-13.61 3.632.024-3.371 10.273h4.291l-1.104 3.313z"/><path d="M249.57 487.451h-3.602l10.826-33.455c.725-2.182 2.793-3.672 5.23-3.704 2.019-.011 3.115-.008 5.136 0 4.375.02 6.058 1.739 7.077 4.572.489 1.36.53 3.278.128 4.55-1.042 3.196-1.289 3.937-2.344 7.127-.691 2.053-2.553 3.426-4.807 3.609 0 0 3.032-9.152 3.978-12.141.571-1.867-.521-4.413-3.4-4.413-2.013-.024-3.272-.011-5.28 0-1.164.015-2.185.726-2.544 1.806l-10.398 32.049zm14.035-9.583h7.924l-4.476 13.61-3.632-.024 3.37-10.273h-4.29l1.104-3.313z"/><path d="M281.248 460.535h3.602l-10.824 33.455c-.725 2.182-2.794 3.672-5.23 3.704-2.019.011-3.115.009-5.137 0-4.374-.019-6.057-1.739-7.076-4.572-.489-1.36-.53-3.278-.128-4.55 1.042-3.196 1.289-3.936 2.344-7.126.69-2.054 2.553-3.427 4.807-3.61 0 0-3.033 9.152-3.978 12.142-.571 1.866.521 4.412 3.4 4.412 2.013.024 3.271.011 5.28 0 1.163-.015 2.185-.725 2.544-1.806l10.396-32.049zm-94.463 125.309h-7.925l4.477-13.61 3.632.024-3.371 10.273h4.291l-1.104 3.313z"/><path d="M169.141 603.177h-3.603l10.826-33.455c.725-2.182 2.793-3.672 5.23-3.704 2.019-.011 3.115-.009 5.137 0 4.374.019 6.057 1.739 7.076 4.571.489 1.361.53 3.279.128 4.551-1.042 3.196-1.289 3.936-2.344 7.126-.691 2.054-2.553 3.427-4.807 3.61 0 0 3.032-9.152 3.978-12.142.571-1.866-.521-4.412-3.4-4.412-2.013-.024-3.272-.011-5.28 0-1.163.015-2.185.725-2.544 1.806l-10.397 32.049zm14.034-9.583h7.924l-4.476 13.61-3.632-.024 3.37-10.273h-4.29l1.104-3.313z"/><path d="M200.818 576.261h3.602l-10.824 33.454c-.725 2.183-2.793 3.672-5.23 3.705-2.019.01-3.115.008-5.136 0-4.375-.02-6.058-1.739-7.077-4.572-.489-1.36-.53-3.278-.128-4.55 1.042-3.196 1.289-3.937 2.344-7.127.691-2.053 2.553-3.426 4.807-3.609 0 0-3.032 9.152-3.978 12.141-.571 1.867.522 4.413 3.4 4.413 2.013.023 3.272.011 5.28 0 1.163-.015 2.185-.726 2.544-1.806l10.396-32.049zm175.283-201.939h-7.925l4.477-13.61 3.632.024-3.371 10.273h4.291l-1.104 3.313z"/><path d="M358.456 391.655h-3.602L365.68 358.2c.725-2.182 2.793-3.672 5.23-3.704 2.019-.011 3.115-.009 5.137 0 4.374.019 6.057 1.739 7.076 4.572.489 1.36.53 3.278.128 4.55-1.042 3.196-1.289 3.937-2.344 7.127-.691 2.053-2.553 3.426-4.807 3.609 0 0 3.032-9.152 3.978-12.142.571-1.866-.521-4.412-3.4-4.412-2.013-.024-3.272-.011-5.28 0-1.163.015-2.185.725-2.544 1.806l-10.398 32.049zm14.035-9.583h7.924l-4.476 13.61-3.632-.024 3.37-10.273h-4.29l1.104-3.313z"/><path d="M390.134 364.739h3.602l-10.824 33.455c-.725 2.182-2.793 3.672-5.23 3.704-2.019.011-3.115.009-5.136 0-4.375-.019-6.058-1.739-7.077-4.572-.489-1.36-.53-3.278-.128-4.55 1.042-3.196 1.289-3.937 2.344-7.127.691-2.053 2.553-3.426 4.807-3.609 0 0-3.032 9.152-3.978 12.142-.571 1.866.522 4.412 3.4 4.412 2.013.024 3.272.011 5.28 0 1.163-.015 2.185-.725 2.544-1.806l10.396-32.049zm77.023-69.027h-3.6l10.799-33.455c.723-2.183 2.79-3.672 5.224-3.705 2.018-.01 3.114-.008 5.134 0 4.372.02 6.055 1.74 7.075 4.572.49 1.36.532 3.278.131 4.55-1.04 3.197-1.286 3.937-2.338 7.127-.69 2.053-2.55 3.427-4.803 3.61 0 0 3.026-9.152 3.969-12.142.57-1.866-.524-4.413-3.4-4.413-2.013-.023-3.27-.01-5.278 0-1.162.015-2.183.726-2.541 1.806l-10.372 32.05zm14.017-9.583h7.924l-4.476 13.609-3.632-.023 3.371-10.274h-4.291l1.104-3.312z"/><path d="M498.817 268.795h3.602l-10.824 33.455c-.725 2.183-2.793 3.672-5.229 3.704-2.019.011-3.115.009-5.137 0-4.375-.019-6.058-1.739-7.076-4.571-.49-1.361-.531-3.278-.129-4.55 1.042-3.197 1.289-3.937 2.344-7.127.691-2.054 2.553-3.427 4.807-3.61 0 0-3.032 9.152-3.978 12.142-.571 1.866.522 4.412 3.4 4.412 2.013.024 3.272.011 5.28 0 1.164-.015 2.185-.725 2.544-1.805l10.396-32.05zM295.984 490.937h-7.924l4.477-13.61 3.631.024-3.37 10.273h4.29l-1.104 3.313z"/><path d="M278.34 508.27h-3.602l10.825-33.455c.726-2.182 2.794-3.672 5.23-3.704 2.019-.011 3.115-.009 5.137 0 4.375.019 6.058 1.739 7.077 4.572.489 1.36.53 3.278.128 4.55-1.043 3.196-1.289 3.937-2.345 7.127-.69 2.053-2.553 3.426-4.807 3.609 0 0 3.033-9.152 3.978-12.142.572-1.866-.521-4.412-3.399-4.412-2.013-.024-3.272-.011-5.281 0-1.163.015-2.184.725-2.543 1.806L278.34 508.27zm14.034-9.583h7.925l-4.477 13.61-3.631-.024 3.37-10.273h-4.291l1.104-3.313z"/><path d="M310.018 481.354h3.602l-10.824 33.455c-.725 2.182-2.794 3.672-5.23 3.704-2.019.011-3.115.009-5.137 0-4.374-.019-6.057-1.739-7.076-4.572-.489-1.36-.53-3.278-.128-4.55 1.042-3.196 1.289-3.937 2.344-7.127.69-2.053 2.553-3.426 4.807-3.609 0 0-3.033 9.152-3.978 12.142-.571 1.866.521 4.412 3.4 4.412 2.013.024 3.271.011 5.28 0 1.163-.015 2.184-.725 2.544-1.806l10.396-32.049zm96.382-86.88h-7.925l4.477-13.61 3.632.024-3.371 10.273h4.291l-1.104 3.313z"/><path d="M388.756 411.807h-3.602l10.825-33.455c.725-2.182 2.794-3.672 5.23-3.704 2.019-.011 3.115-.009 5.137 0 4.375.019 6.058 1.739 7.076 4.572.49 1.36.531 3.278.129 4.55-1.043 3.196-1.29 3.937-2.345 7.126-.691 2.054-2.553 3.427-4.807 3.61 0 0 3.033-9.152 3.978-12.142.572-1.866-.521-4.412-3.399-4.412-2.014-.024-3.272-.011-5.281 0-1.163.015-2.184.725-2.544 1.806l-10.397 32.049zm14.034-9.583h7.925l-4.477 13.61-3.631-.024 3.37-10.273h-4.291l1.104-3.313z"/><path d="M420.433 384.891h3.602l-10.824 33.455c-.725 2.182-2.793 3.672-5.229 3.704-2.019.011-3.115.008-5.137 0-4.375-.02-6.058-1.739-7.076-4.572-.49-1.36-.531-3.278-.129-4.55 1.043-3.196 1.289-3.937 2.344-7.127.691-2.053 2.553-3.426 4.807-3.609 0 0-3.032 9.152-3.977 12.142-.572 1.866.521 4.412 3.399 4.412 2.014.024 3.272.011 5.281 0 1.163-.015 2.184-.725 2.543-1.806l10.396-32.049zm94.669-86.361h-7.925l4.477-13.61 3.632.024-3.371 10.273h4.291l-1.104 3.313z"/><path d="M497.458 315.863h-3.602l10.825-33.455c.725-2.182 2.794-3.672 5.23-3.704 2.019-.011 3.115-.009 5.137 0 4.375.019 6.058 1.739 7.076 4.572.489 1.36.531 3.278.128 4.55-1.042 3.196-1.289 3.936-2.344 7.126-.691 2.054-2.553 3.427-4.807 3.61 0 0 3.033-9.152 3.978-12.142.571-1.866-.521-4.412-3.4-4.412-2.013-.024-3.271-.011-5.28 0-1.163.015-2.185.725-2.544 1.806l-10.397 32.049zm14.034-9.583h7.924l-4.476 13.61-3.632-.024 3.37-10.273h-4.29l1.104-3.313z"/><path d="M529.135 288.947h3.602l-10.824 33.454c-.725 2.183-2.793 3.672-5.23 3.705-2.019.011-3.115.008-5.136 0-4.375-.02-6.058-1.739-7.077-4.572-.489-1.36-.53-3.278-.128-4.55 1.042-3.196 1.289-3.937 2.344-7.127.691-2.053 2.553-3.426 4.807-3.609 0 0-3.032 9.152-3.978 12.141-.571 1.867.522 4.413 3.4 4.413 2.013.024 3.272.011 5.28 0 1.163-.015 2.185-.726 2.544-1.806l10.396-32.049zM246.093 395.511h-7.924l4.477-13.61 3.631.024-3.37 10.273h4.291l-1.105 3.313z"/><path d="M228.449 412.844h-3.602l10.826-33.454c.725-2.183 2.793-3.672 5.229-3.705 2.019-.01 3.116-.008 5.137 0 4.375.02 6.058 1.739 7.077 4.572.489 1.36.53 3.278.128 4.55-1.043 3.196-1.289 3.937-2.344 7.127-.691 2.053-2.554 3.426-4.808 3.609 0 0 3.033-9.152 3.979-12.141.571-1.867-.522-4.413-3.4-4.413-2.013-.024-3.272-.011-5.28 0-1.164.015-2.185.726-2.544 1.806l-10.398 32.049zm14.034-9.582h7.925l-4.477 13.609-3.631-.024 3.37-10.273h-4.291l1.104-3.312z"/><path d="M260.127 385.928h3.602l-10.824 33.455c-.725 2.182-2.794 3.672-5.23 3.704-2.019.011-3.115.009-5.137 0-4.374-.019-6.057-1.739-7.076-4.572-.489-1.36-.53-3.278-.128-4.55 1.042-3.196 1.289-3.936 2.344-7.126.69-2.054 2.553-3.427 4.807-3.61 0 0-3.033 9.152-3.978 12.142-.571 1.866.521 4.412 3.4 4.412 2.013.024 3.271.011 5.28 0 1.163-.015 2.184-.725 2.544-1.806l10.396-32.049zm94.668-86.361h-7.924l4.476-13.609 3.632.023-3.371 10.274h4.291l-1.104 3.312z"/><path d="M337.151 316.901h-3.602l10.825-33.455c.726-2.183 2.794-3.672 5.23-3.704 2.019-.011 3.115-.009 5.137 0 4.375.019 6.058 1.739 7.076 4.571.49 1.361.531 3.278.129 4.551-1.043 3.196-1.289 3.936-2.345 7.126-.69 2.054-2.553 3.427-4.807 3.61 0 0 3.033-9.152 3.978-12.142.572-1.866-.521-4.412-3.399-4.412-2.014-.024-3.272-.011-5.281 0-1.163.015-2.184.725-2.544 1.805l-10.397 32.05zm14.034-9.583h7.925l-4.477 13.609-3.631-.023 3.37-10.274h-4.291l1.104-3.312z"/><path d="M368.828 289.985h3.602l-10.823 33.454c-.726 2.183-2.794 3.672-5.23 3.705-2.019.01-3.115.008-5.137 0-4.374-.02-6.057-1.74-7.076-4.572-.489-1.36-.531-3.278-.128-4.55 1.042-3.197 1.289-3.937 2.344-7.127.69-2.053 2.552-3.427 4.806-3.609 0 0-3.032 9.152-3.977 12.141-.571 1.866.521 4.413 3.4 4.413 2.013.023 3.271.01 5.28 0 1.163-.015 2.184-.726 2.544-1.806l10.395-32.049zM148.369 529.46h-3.6l10.798-33.455c.724-2.183 2.79-3.672 5.225-3.705 2.018-.011 3.113-.008 5.134 0 4.372.02 6.055 1.739 7.074 4.572.49 1.36.533 3.278.131 4.55-1.039 3.196-1.286 3.937-2.338 7.127-.689 2.053-2.55 3.426-4.802 3.609 0 0 3.025-9.152 3.968-12.141.57-1.867-.523-4.413-3.4-4.413-2.012-.023-3.27-.011-5.277 0-1.163.015-2.183.726-2.542 1.806l-10.371 32.05zm31.624-26.917h3.6l-10.797 33.455c-.724 2.182-2.79 3.672-5.225 3.704-2.017.011-3.113.009-5.133 0-4.372-.019-6.055-1.739-7.075-4.572-.49-1.36-.532-3.278-.131-4.55 1.039-3.196 1.285-3.937 2.338-7.126.689-2.054 2.549-3.427 4.802-3.61 0 0-3.025 9.152-3.968 12.142-.57 1.866.524 4.412 3.4 4.412 2.012.024 3.27.011 5.277 0 1.163-.015 2.183-.725 2.542-1.806l10.37-32.049zm94.796-85.472h-7.924l4.477-13.61 3.631.024-3.37 10.273h4.29l-1.104 3.313z"/><path d="M257.145 434.404h-3.602l10.826-33.455c.725-2.182 2.793-3.672 5.229-3.704 2.019-.011 3.116-.009 5.137 0 4.375.019 6.058 1.739 7.077 4.572.489 1.36.53 3.278.128 4.55-1.043 3.196-1.289 3.936-2.344 7.126-.691 2.054-2.554 3.427-4.808 3.61 0 0 3.033-9.152 3.978-12.142.572-1.866-.521-4.412-3.399-4.412-2.013-.024-3.272-.011-5.281 0-1.163.015-2.184.725-2.543 1.806l-10.398 32.049zm14.034-9.583h7.925l-4.477 13.609-3.631-.023 3.37-10.274h-4.291l1.104-3.312z"/><path d="M288.822 407.488h3.603l-10.824 33.454c-.726 2.183-2.794 3.672-5.23 3.705-2.019.011-3.115.008-5.137 0-4.374-.02-6.057-1.739-7.076-4.572-.489-1.36-.531-3.278-.128-4.55 1.042-3.196 1.289-3.937 2.344-7.127.69-2.053 2.552-3.426 4.806-3.609 0 0-3.032 9.152-3.977 12.141-.571 1.867.521 4.413 3.4 4.413 2.013.024 3.271.011 5.28 0 1.163-.015 2.184-.726 2.544-1.806l10.395-32.049zm94.651-86.435h-7.925l4.477-13.61 3.632.024-3.371 10.273h4.291l-1.104 3.313z"/><path d="M365.829 338.386h-3.603l10.826-33.454c.725-2.183 2.794-3.672 5.23-3.705 2.019-.011 3.115-.008 5.137 0 4.375.02 6.058 1.739 7.076 4.572.489 1.36.531 3.278.128 4.55-1.042 3.196-1.289 3.937-2.344 7.127-.691 2.053-2.553 3.426-4.807 3.609 0 0 3.032-9.152 3.978-12.141.571-1.867-.521-4.413-3.4-4.413-2.013-.024-3.271-.011-5.28 0-1.163.015-2.185.726-2.544 1.806l-10.397 32.049zm14.034-9.583h7.924l-4.476 13.609-3.632-.023 3.371-10.274h-4.291l1.104-3.312z"/><path d="M397.506 311.469h3.602l-10.824 33.455c-.725 2.183-2.793 3.672-5.23 3.704-2.019.011-3.115.009-5.136 0-4.375-.019-6.058-1.739-7.077-4.571-.489-1.361-.53-3.278-.128-4.55 1.042-3.197 1.289-3.937 2.344-7.127.691-2.053 2.553-3.427 4.807-3.61 0 0-3.032 9.152-3.978 12.142-.571 1.866.522 4.413 3.4 4.413 2.013.023 3.272.01 5.28 0 1.163-.016 2.185-.726 2.544-1.806l10.396-32.05zM194.673 533.686h-7.925l4.477-13.61 3.632.024-3.371 10.273h4.291l-1.104 3.313z"/><path d="M177.029 551.019h-3.602l10.825-33.455c.725-2.182 2.794-3.672 5.23-3.704 2.019-.011 3.115-.009 5.137 0 4.375.019 6.058 1.739 7.076 4.572.489 1.36.531 3.278.128 4.55-1.042 3.196-1.289 3.937-2.344 7.126-.691 2.054-2.553 3.427-4.807 3.61 0 0 3.033-9.152 3.978-12.142.571-1.866-.521-4.412-3.4-4.412-2.013-.024-3.271-.011-5.28 0-1.163.015-2.185.725-2.544 1.806l-10.397 32.049zm14.034-9.583h7.924l-4.476 13.61-3.632-.024 3.371-10.273h-4.291l1.104-3.313z"/><path d="M208.706 524.103h3.602l-10.824 33.454c-.725 2.183-2.793 3.672-5.229 3.705-2.019.011-3.115.008-5.137 0-4.375-.02-6.058-1.739-7.076-4.572-.49-1.36-.531-3.278-.129-4.55 1.042-3.196 1.289-3.937 2.344-7.127.691-2.053 2.553-3.426 4.807-3.609 0 0-3.032 9.152-3.977 12.141-.572 1.867.521 4.413 3.399 4.413 2.013.024 3.272.011 5.28 0 1.164-.015 2.185-.726 2.544-1.806l10.396-32.049zm94.853-86.214h-7.925l4.477-13.609 3.632.023-3.371 10.274h4.291l-1.104 3.312z"/><path d="M285.915 455.223h-3.602l10.825-33.455c.725-2.183 2.794-3.672 5.23-3.704 2.019-.011 3.115-.009 5.137 0 4.375.019 6.058 1.739 7.076 4.571.49 1.361.531 3.278.129 4.551-1.043 3.196-1.29 3.936-2.345 7.126-.691 2.054-2.553 3.427-4.807 3.61 0 0 3.033-9.152 3.978-12.142.571-1.866-.521-4.412-3.399-4.412-2.014-.024-3.272-.011-5.281 0-1.163.015-2.184.725-2.544 1.805l-10.397 32.05zm14.034-9.583h7.924l-4.476 13.609-3.632-.023 3.371-10.274h-4.291l1.104-3.312z"/><path d="M317.592 428.307h3.602l-10.824 33.454c-.725 2.183-2.793 3.672-5.229 3.705-2.019.01-3.115.008-5.137 0-4.375-.02-6.058-1.74-7.076-4.572-.49-1.36-.531-3.278-.129-4.55 1.043-3.197 1.289-3.937 2.344-7.127.691-2.053 2.553-3.427 4.807-3.609 0 0-3.032 9.152-3.977 12.141-.572 1.866.521 4.413 3.399 4.413 2.014.023 3.272.01 5.281 0 1.163-.015 2.184-.726 2.543-1.806l10.396-32.049zm94.65-86.362h-7.924l4.477-13.61 3.631.024-3.37 10.274h4.29l-1.104 3.312z"/><path d="M394.598 359.278h-3.602l10.826-33.454c.725-2.183 2.793-3.672 5.229-3.705 2.02-.01 3.116-.008 5.137 0 4.375.02 6.058 1.739 7.077 4.572.489 1.36.53 3.278.128 4.55-1.042 3.197-1.289 3.937-2.344 7.127-.691 2.053-2.553 3.426-4.808 3.609 0 0 3.033-9.152 3.979-12.141.571-1.866-.522-4.413-3.4-4.413-2.013-.023-3.272-.011-5.28 0-1.164.015-2.185.726-2.544 1.806l-10.398 32.049zm14.035-9.582h7.924l-4.476 13.609-3.632-.023 3.37-10.274h-4.29l1.104-3.312z"/><path d="M426.276 332.362h3.602l-10.824 33.455c-.725 2.183-2.794 3.672-5.23 3.704-2.019.011-3.115.009-5.137 0-4.374-.019-6.057-1.739-7.076-4.571-.489-1.361-.53-3.279-.128-4.551 1.042-3.196 1.289-3.936 2.344-7.126.69-2.054 2.553-3.427 4.807-3.61 0 0-3.033 9.152-3.978 12.142-.571 1.866.521 4.412 3.4 4.412 2.013.024 3.271.011 5.28 0 1.163-.015 2.185-.725 2.544-1.806l10.396-32.049zM223.443 554.504h-7.925l4.477-13.609 3.632.023-3.371 10.274h4.291l-1.104 3.312z"/><path d="M205.798 571.838h-3.602l10.826-33.455c.725-2.183 2.793-3.672 5.23-3.704 2.019-.011 3.115-.009 5.136 0 4.375.019 6.058 1.739 7.077 4.571.489 1.361.53 3.278.128 4.551-1.042 3.196-1.289 3.936-2.344 7.126-.691 2.054-2.553 3.427-4.807 3.61 0 0 3.032-9.152 3.978-12.142.571-1.866-.521-4.412-3.4-4.412-2.013-.024-3.272-.011-5.28 0-1.164.015-2.185.725-2.544 1.805l-10.398 32.05zm14.035-9.583h7.924l-4.476 13.61-3.632-.024 3.37-10.274h-4.29l1.104-3.312z"/><path d="M237.476 544.922h3.602l-10.824 33.454c-.725 2.183-2.793 3.672-5.23 3.705-2.019.01-3.115.008-5.136 0-4.375-.02-6.058-1.74-7.077-4.572-.489-1.36-.53-3.278-.128-4.55 1.042-3.197 1.289-3.937 2.344-7.127.691-2.053 2.553-3.427 4.807-3.609 0 0-3.032 9.152-3.978 12.141-.571 1.866.522 4.413 3.4 4.413 2.013.023 3.272.01 5.28 0 1.163-.015 2.185-.726 2.544-1.806l10.396-32.049zm96.383-86.88h-7.925l4.477-13.61 3.631.024-3.37 10.273h4.291l-1.104 3.313z"/><path d="M316.214 475.375h-3.602l10.826-33.455c.725-2.182 2.793-3.672 5.229-3.704 2.019-.011 3.116-.009 5.137 0 4.375.019 6.058 1.739 7.077 4.571.489 1.361.53 3.279.128 4.551-1.043 3.196-1.289 3.936-2.344 7.126-.691 2.054-2.553 3.427-4.808 3.61 0 0 3.033-9.152 3.979-12.142.571-1.866-.522-4.412-3.4-4.412-2.013-.024-3.272-.011-5.28 0-1.164.015-2.185.725-2.544 1.806l-10.398 32.049zm14.034-9.583h7.925l-4.477 13.61-3.631-.024 3.37-10.273h-4.291l1.104-3.313z"/><path d="M347.891 448.459h3.602l-10.823 33.454c-.726 2.183-2.794 3.672-5.23 3.705-2.019.01-3.115.008-5.137 0-4.374-.02-6.057-1.739-7.076-4.572-.489-1.36-.531-3.278-.128-4.55 1.042-3.196 1.289-3.937 2.344-7.127.69-2.053 2.552-3.426 4.806-3.609 0 0-3.032 9.152-3.977 12.141-.571 1.867.521 4.413 3.399 4.413 2.014.023 3.272.011 5.281 0 1.163-.015 2.184-.726 2.544-1.806l10.395-32.049zm94.669-86.362h-7.924l4.476-13.609 3.632.023-3.371 10.274h4.291l-1.104 3.312z"/><path d="M424.916 379.431h-3.602l10.825-33.455c.726-2.183 2.794-3.672 5.23-3.705 2.019-.01 3.115-.008 5.137 0 4.375.02 6.058 1.74 7.076 4.572.49 1.36.531 3.278.129 4.55-1.043 3.197-1.289 3.937-2.345 7.127-.69 2.053-2.553 3.427-4.807 3.61 0 0 3.033-9.153 3.978-12.142.572-1.866-.521-4.413-3.399-4.413-2.014-.023-3.272-.01-5.281 0-1.163.015-2.184.726-2.544 1.806l-10.397 32.05zm14.034-9.583h7.925l-4.477 13.609-3.631-.023 3.37-10.274h-4.291l1.104-3.312z"/><path d="M456.593 352.514h3.602l-10.823 33.455c-.726 2.183-2.794 3.672-5.23 3.704-2.019.011-3.115.009-5.137 0-4.374-.019-6.057-1.739-7.076-4.571-.489-1.361-.531-3.278-.128-4.55 1.042-3.197 1.289-3.937 2.344-7.127.69-2.054 2.553-3.427 4.806-3.61 0 0-3.032 9.152-3.977 12.142-.571 1.866.521 4.412 3.4 4.412 2.013.024 3.271.011 5.28 0 1.163-.015 2.184-.725 2.544-1.805l10.395-32.05zm108.684-95.129h3.6l-10.796 33.455c-.723 2.182-2.789 3.672-5.224 3.704-2.018.011-3.113.009-5.134 0-4.372-.019-6.055-1.739-7.075-4.572-.489-1.36-.532-3.278-.131-4.55 1.04-3.196 1.286-3.937 2.338-7.127.689-2.053 2.549-3.426 4.802-3.609 0 0-3.025 9.152-3.968 12.142-.569 1.866.524 4.412 3.401 4.412 2.012.024 3.27.011 5.277 0 1.162-.015 2.183-.725 2.541-1.806l10.369-32.049zm-418.254 45.291h-3.6l10.799-33.455c.723-2.183 2.789-3.672 5.224-3.705 2.018-.01 3.114-.008 5.134 0 4.372.02 6.055 1.739 7.075 4.572.49 1.36.532 3.278.131 4.55-1.04 3.197-1.286 3.937-2.339 7.127-.689 2.053-2.549 3.427-4.802 3.609 0 0 3.026-9.152 3.969-12.141.57-1.866-.524-4.413-3.401-4.413-2.012-.023-3.27-.011-5.277 0-1.162.015-2.183.726-2.541 1.806l-10.372 32.05zm31.624-26.917h3.6l-10.797 33.455c-.723 2.183-2.789 3.672-5.224 3.704-2.018.011-3.113.009-5.134 0-4.372-.019-6.055-1.739-7.075-4.571-.49-1.361-.532-3.279-.131-4.551 1.04-3.196 1.286-3.936 2.338-7.126.689-2.054 2.55-3.427 4.802-3.61 0 0-3.025 9.152-3.968 12.142-.569 1.866.524 4.412 3.401 4.412 2.012.024 3.27.011 5.277 0 1.162-.015 2.183-.725 2.541-1.806l10.37-32.049zm15.086 28.105h-7.925l4.477-13.609 3.632.023-3.371 10.274h4.291l-1.104 3.312z"/><path d="M176.089 321.198h-3.603l10.826-33.455c.725-2.183 2.794-3.672 5.23-3.704 2.019-.011 3.115-.009 5.137 0 4.375.019 6.058 1.739 7.076 4.571.489 1.361.531 3.278.128 4.55-1.042 3.197-1.289 3.937-2.344 7.127-.691 2.053-2.553 3.427-4.807 3.61 0 0 3.032-9.152 3.978-12.142.571-1.866-.521-4.413-3.4-4.413-2.013-.023-3.271-.01-5.28 0-1.163.016-2.185.726-2.544 1.806l-10.397 32.05zm14.034-9.583h7.924l-4.476 13.609-3.632-.023 3.371-10.274h-4.291l1.104-3.312z"/><path d="M207.766 294.281h3.602l-10.824 33.455c-.725 2.183-2.793 3.672-5.229 3.704-2.019.011-3.116.009-5.137 0-4.375-.019-6.058-1.739-7.076-4.571-.49-1.361-.531-3.278-.129-4.55 1.042-3.197 1.289-3.937 2.344-7.127.691-2.053 2.553-3.427 4.807-3.61 0 0-3.032 9.152-3.978 12.142-.571 1.866.522 4.413 3.4 4.413 2.013.023 3.272.01 5.28 0 1.164-.016 2.185-.726 2.544-1.806l10.396-32.05zm14.663 31.143h-7.925l4.477-13.61 3.632.024-3.371 10.273h4.291l-1.104 3.313z"/><path d="M204.785 342.757h-3.602l10.825-33.455c.725-2.182 2.794-3.672 5.23-3.704 2.019-.011 3.115-.009 5.137 0 4.375.019 6.058 1.739 7.076 4.572.489 1.36.531 3.278.128 4.55-1.042 3.196-1.289 3.937-2.344 7.127-.691 2.053-2.553 3.426-4.807 3.609 0 0 3.032-9.152 3.978-12.142.571-1.866-.521-4.412-3.4-4.412-2.013-.024-3.271-.011-5.28 0-1.163.015-2.185.725-2.544 1.806l-10.397 32.049zm14.034-9.583h7.924l-4.476 13.61-3.632-.024 3.371-10.273h-4.291l1.104-3.313z"/><path d="M236.462 315.841h3.602l-10.824 33.455c-.725 2.182-2.793 3.672-5.229 3.704-2.019.011-3.115.009-5.137 0-4.375-.019-6.058-1.739-7.076-4.572-.49-1.36-.531-3.278-.129-4.55 1.042-3.196 1.289-3.937 2.344-7.126.691-2.054 2.553-3.427 4.807-3.61 0 0-3.032 9.152-3.978 12.142-.571 1.866.522 4.412 3.4 4.412 2.013.024 3.272.011 5.28 0 1.164-.015 2.185-.725 2.544-1.806l10.396-32.049zm14.737 30.402h-7.925l4.477-13.61 3.632.024-3.371 10.273h4.291l-1.104 3.313z"/><path d="M233.554 363.576h-3.602l10.826-33.455c.725-2.182 2.793-3.672 5.23-3.704 2.019-.011 3.115-.009 5.136 0 4.375.019 6.058 1.739 7.077 4.572.489 1.36.53 3.278.128 4.55-1.042 3.196-1.289 3.937-2.344 7.126-.691 2.054-2.553 3.427-4.807 3.61 0 0 3.032-9.152 3.978-12.142.571-1.866-.522-4.412-3.4-4.412-2.013-.024-3.272-.011-5.28 0-1.164.015-2.185.725-2.544 1.806l-10.398 32.049zm14.034-9.583h7.925l-4.476 13.61-3.632-.024 3.37-10.273h-4.29l1.103-3.313z"/><path d="M265.232 336.66h3.602l-10.824 33.455c-.725 2.182-2.794 3.672-5.23 3.704-2.019.011-3.115.008-5.137 0-4.374-.019-6.057-1.739-7.076-4.572-.489-1.36-.53-3.278-.128-4.55 1.042-3.196 1.289-3.937 2.344-7.127.69-2.053 2.553-3.426 4.807-3.609 0 0-3.033 9.152-3.978 12.142-.571 1.866.521 4.412 3.4 4.412 2.013.024 3.272.011 5.28 0 1.163-.015 2.185-.725 2.544-1.806l10.396-32.049zm-52.708-47.543h-3.6l10.799-33.454c.723-2.183 2.79-3.672 5.224-3.705 2.018-.011 3.114-.008 5.134 0 4.372.02 6.056 1.739 7.075 4.572.49 1.36.532 3.278.131 4.55-1.04 3.196-1.286 3.937-2.338 7.127-.69 2.053-2.55 3.426-4.802 3.609 0 0 3.025-9.152 3.968-12.141.57-1.867-.524-4.413-3.4-4.413-2.013-.024-3.27-.011-5.278 0-1.162.015-2.183.726-2.541 1.806l-10.372 32.049zm14.017-9.583h7.924l-4.476 13.61-3.631-.024 3.37-10.273h-4.291l1.104-3.313z"/><path d="M244.184 262.201h3.602l-10.824 33.455c-.725 2.182-2.793 3.672-5.229 3.704-2.019.011-3.115.009-5.137 0-4.374-.019-6.057-1.739-7.076-4.572-.489-1.36-.531-3.278-.129-4.55 1.043-3.196 1.289-3.936 2.344-7.126.691-2.054 2.553-3.427 4.807-3.61 0 0-3.032 9.152-3.977 12.142-.571 1.866.521 4.412 3.399 4.412 2.014.024 3.272.011 5.281 0 1.163-.015 2.184-.725 2.543-1.806l10.396-32.049zm14.663 31.069h-7.925l4.477-13.61 3.632.024-3.371 10.273h4.291l-1.104 3.313z"/><path d="M241.203 310.603h-3.602l10.825-33.455c.725-2.182 2.794-3.672 5.23-3.704 2.019-.011 3.115-.009 5.137 0 4.375.019 6.058 1.739 7.076 4.572.49 1.36.531 3.278.129 4.55-1.043 3.196-1.29 3.936-2.345 7.126-.691 2.054-2.553 3.427-4.807 3.61 0 0 3.033-9.152 3.978-12.142.572-1.866-.521-4.412-3.399-4.412-2.014-.024-3.272-.011-5.281 0-1.163.015-2.184.725-2.544 1.806l-10.397 32.049zm14.034-9.583h7.924l-4.476 13.61-3.632-.024 3.371-10.273h-4.291l1.104-3.313z"/><path d="M272.88 283.687h3.602l-10.824 33.454c-.725 2.183-2.793 3.672-5.229 3.705-2.019.011-3.115.008-5.137 0-4.375-.02-6.058-1.739-7.076-4.572-.49-1.36-.531-3.278-.129-4.55 1.043-3.196 1.289-3.937 2.344-7.127.691-2.053 2.553-3.426 4.807-3.609 0 0-3.032 9.152-3.977 12.141-.572 1.867.521 4.413 3.399 4.413 2.013.024 3.272.011 5.28 0 1.164-.015 2.185-.726 2.544-1.806l10.396-32.049zm-94.463 125.308h-7.924l4.477-13.609 3.631.023-3.37 10.274h4.29l-1.104 3.312z"/><path d="M160.773 426.329h-3.602l10.825-33.455c.726-2.183 2.794-3.672 5.23-3.704 2.019-.011 3.115-.009 5.137 0 4.375.019 6.058 1.739 7.077 4.571.489 1.361.53 3.278.128 4.551-1.043 3.196-1.289 3.936-2.345 7.126-.69 2.054-2.553 3.427-4.807 3.61 0 0 3.033-9.152 3.978-12.142.572-1.866-.521-4.412-3.399-4.412-2.013-.024-3.272-.011-5.281 0-1.163.015-2.184.725-2.543 1.805l-10.398 32.05zm14.034-9.583h7.925l-4.477 13.609-3.631-.023 3.37-10.274h-4.291l1.104-3.312z"/><path d="M192.45 399.412h3.602l-10.823 33.455c-.726 2.183-2.794 3.672-5.23 3.705-2.019.01-3.115.008-5.137 0-4.374-.02-6.057-1.74-7.076-4.572-.489-1.36-.531-3.278-.128-4.55 1.042-3.197 1.288-3.937 2.344-7.127.69-2.053 2.552-3.427 4.806-3.61 0 0-3.032 9.153-3.977 12.142-.571 1.866.521 4.413 3.399 4.413 2.014.023 3.272.01 5.281 0 1.163-.015 2.184-.726 2.544-1.806l10.395-32.05zm95.167-85.25h-7.925l4.477-13.609 3.632.023-3.371 10.274h4.291l-1.104 3.312z"/><path d="M269.973 331.496h-3.603l10.826-33.455c.725-2.183 2.794-3.672 5.23-3.704 2.019-.011 3.115-.009 5.137 0 4.374.019 6.057 1.739 7.076 4.571.489 1.361.53 3.278.128 4.55-1.042 3.197-1.289 3.937-2.344 7.127-.691 2.054-2.553 3.427-4.807 3.61 0 0 3.032-9.152 3.978-12.142.571-1.866-.521-4.412-3.4-4.412-2.013-.024-3.272-.011-5.28 0-1.163.015-2.185.725-2.544 1.805l-10.397 32.05zm14.033-9.583h7.925l-4.476 13.609-3.632-.023 3.37-10.274h-4.29l1.103-3.312z"/><path d="M301.65 304.579h3.602l-10.824 33.455c-.725 2.183-2.793 3.672-5.23 3.705-2.019.01-3.115.008-5.136 0-4.375-.02-6.058-1.74-7.077-4.572-.489-1.36-.53-3.278-.128-4.55 1.042-3.197 1.289-3.937 2.344-7.127.691-2.053 2.553-3.427 4.807-3.61 0 0-3.032 9.153-3.978 12.142-.571 1.866.522 4.413 3.4 4.413 2.013.023 3.272.01 5.28 0 1.163-.015 2.185-.726 2.544-1.806l10.396-32.05zm-130.025 21.19h3.599l-10.796 33.454c-.723 2.183-2.789 3.672-5.224 3.705-2.017.011-3.113.008-5.133 0-4.372-.02-6.055-1.739-7.075-4.572-.49-1.36-.532-3.278-.131-4.55 1.039-3.196 1.285-3.937 2.338-7.127.689-2.053 2.549-3.426 4.801-3.609 0 0-3.024 9.152-3.967 12.141-.57 1.867.524 4.413 3.4 4.413 2.012.024 3.27.011 5.277 0 1.163-.015 2.183-.726 2.541-1.806l10.37-32.049zm14.681 31.068h-7.925l4.477-13.609 3.631.023-3.37 10.274h4.291l-1.104 3.312z"/><path d="M168.661 374.171h-3.602l10.826-33.455c.725-2.183 2.793-3.672 5.229-3.705 2.02-.01 3.116-.008 5.137 0 4.375.02 6.058 1.74 7.077 4.572.489 1.36.53 3.278.128 4.55-1.042 3.197-1.289 3.937-2.344 7.127-.691 2.053-2.553 3.427-4.808 3.61 0 0 3.033-9.153 3.979-12.142.571-1.866-.522-4.413-3.4-4.413-2.013-.023-3.272-.01-5.28 0-1.164.015-2.185.726-2.544 1.806l-10.398 32.05zm14.034-9.583h7.925l-4.477 13.609-3.631-.023 3.37-10.274h-4.291l1.104-3.312z"/><path d="M200.339 347.254h3.602l-10.824 33.455c-.725 2.183-2.794 3.672-5.23 3.704-2.019.011-3.115.009-5.137 0-4.374-.019-6.057-1.739-7.076-4.571-.489-1.361-.53-3.278-.128-4.55 1.042-3.197 1.289-3.937 2.344-7.127.69-2.054 2.553-3.427 4.807-3.61 0 0-3.033 9.152-3.978 12.142-.571 1.866.521 4.412 3.4 4.412 2.013.024 3.271.011 5.28 0 1.163-.015 2.184-.725 2.544-1.805l10.396-32.05zm14.736 30.476h-7.925l4.477-13.609 3.632.023-3.371 10.274h4.291l-1.104 3.312z"/><path d="M197.431 395.064h-3.602l10.825-33.455c.726-2.183 2.794-3.672 5.23-3.704 2.019-.011 3.115-.009 5.137 0 4.375.019 6.058 1.739 7.076 4.571.49 1.361.531 3.278.129 4.55-1.043 3.197-1.29 3.937-2.345 7.127-.691 2.053-2.553 3.427-4.807 3.61 0 0 3.033-9.152 3.978-12.142.572-1.866-.521-4.413-3.399-4.413-2.014-.023-3.272-.01-5.281 0-1.163.015-2.184.726-2.544 1.806l-10.397 32.05zm14.034-9.583h7.924l-4.476 13.609-3.632-.023 3.371-10.274h-4.291l1.104-3.312z"/><path d="M229.108 368.147h3.602l-10.824 33.455c-.725 2.183-2.793 3.672-5.229 3.704-2.019.011-3.115.009-5.137 0-4.375-.019-6.058-1.739-7.076-4.571-.49-1.361-.531-3.278-.129-4.55 1.043-3.197 1.289-3.937 2.344-7.127.691-2.053 2.553-3.427 4.807-3.61 0 0-3.032 9.152-3.977 12.142-.572 1.866.521 4.413 3.399 4.413 2.014.023 3.272.01 5.281 0 1.163-.016 2.184-.726 2.543-1.806l10.396-32.05zm78.756-69.546h-3.6l10.799-33.455c.723-2.183 2.79-3.672 5.224-3.705 2.018-.01 3.114-.008 5.134 0 4.372.02 6.056 1.74 7.075 4.572.49 1.36.532 3.278.131 4.55-1.04 3.197-1.286 3.937-2.338 7.127-.69 2.053-2.55 3.427-4.803 3.61 0 0 3.026-9.153 3.969-12.142.57-1.866-.524-4.413-3.4-4.413-2.013-.023-3.27-.01-5.278 0-1.162.015-2.183.726-2.541 1.806l-10.372 32.05zm14.017-9.583h7.924l-4.476 13.609-3.631-.023 3.37-10.274h-4.291l1.104-3.312z"/><path d="M339.524 271.684h3.602l-10.824 33.455c-.725 2.183-2.793 3.672-5.229 3.704-2.019.011-3.115.009-5.137 0-4.375-.019-6.058-1.739-7.076-4.571-.49-1.361-.531-3.278-.129-4.551 1.043-3.196 1.289-3.936 2.344-7.126.691-2.054 2.553-3.427 4.807-3.61 0 0-3.032 9.152-3.977 12.142-.572 1.866.521 4.412 3.399 4.412 2.014.024 3.272.011 5.281 0 1.163-.015 2.184-.725 2.543-1.806l10.396-32.049zM31.55 222.065h-3.6l10.798-33.455c.724-2.183 2.79-3.672 5.225-3.704 2.017-.011 3.113-.009 5.133 0 4.373.019 6.056 1.739 7.075 4.571.49 1.361.533 3.279.131 4.551-1.04 3.196-1.286 3.936-2.338 7.126-.69 2.054-2.55 3.427-4.802 3.61 0 0 3.025-9.152 3.968-12.142.57-1.866-.524-4.412-3.4-4.412-2.012-.024-3.27-.011-5.278 0-1.162.015-2.182.725-2.54 1.806L31.55 222.065zm231.881-203.62h7.924l-4.476 13.61-3.631-.023 3.369-10.274h-4.29l1.104-3.313z"/><path d="M281.073 1.112h3.602l-10.822 33.455c-.725 2.182-2.794 3.672-5.23 3.704-2.018.011-3.115.009-5.136 0-4.375-.02-6.058-1.739-7.076-4.571-.49-1.36-.531-3.279-.129-4.55 1.042-3.197 1.289-3.937 2.344-7.127.69-2.054 2.552-3.427 4.806-3.61 0 0-3.031 9.152-3.977 12.142-.571 1.866.522 4.412 3.4 4.412 2.013.024 3.272.011 5.28 0 1.163-.015 2.184-.725 2.544-1.806l10.394-32.049zm-94.038 127.086h-7.925l4.477-13.609 3.632.024-3.371 10.273h4.291l-1.104 3.312z"/><path d="M169.391 145.532h-3.602l10.825-33.455c.725-2.182 2.794-3.672 5.23-3.704 2.019-.011 3.115-.009 5.137 0 4.375.019 6.058 1.739 7.076 4.571.49 1.361.531 3.279.129 4.551-1.043 3.196-1.29 3.936-2.345 7.126-.691 2.054-2.553 3.427-4.807 3.61 0 0 3.033-9.152 3.978-12.142.572-1.866-.521-4.412-3.399-4.412-2.014-.024-3.272-.011-5.281 0-1.163.015-2.184.725-2.544 1.806l-10.397 32.049zm14.034-9.583h7.924l-4.476 13.61-3.632-.024 3.371-10.273h-4.291l1.104-3.313z"/><path d="M201.068 118.616h3.602l-10.824 33.454c-.725 2.183-2.793 3.672-5.229 3.705-2.019.01-3.115.008-5.137 0-4.375-.02-6.058-1.739-7.076-4.572-.49-1.36-.531-3.278-.129-4.55 1.043-3.196 1.289-3.937 2.344-7.127.691-2.053 2.553-3.426 4.807-3.609 0 0-3.032 9.152-3.977 12.141-.572 1.866.521 4.413 3.399 4.413 2.013.023 3.272.011 5.28 0 1.164-.015 2.185-.726 2.544-1.806l10.396-32.049zm-94.131 126.197h-7.925l4.477-13.609 3.632.023-3.371 10.274h4.291l-1.104 3.312z"/><path d="M89.293 262.147H85.69l10.826-33.455c.725-2.183 2.794-3.672 5.23-3.704 2.019-.011 3.115-.009 5.137 0 4.374.019 6.058 1.739 7.076 4.571.489 1.361.531 3.278.128 4.55-1.042 3.197-1.289 3.937-2.344 7.127-.691 2.053-2.553 3.427-4.807 3.61 0 0 3.032-9.152 3.978-12.142.571-1.866-.521-4.413-3.4-4.413-2.013-.023-3.271-.01-5.28 0-1.163.015-2.185.726-2.544 1.806l-10.397 32.05zm14.034-9.583h7.924l-4.476 13.609-3.632-.023 3.37-10.274h-4.29l1.104-3.312z"/><path d="M120.97 235.23h3.602l-10.824 33.455c-.725 2.183-2.793 3.672-5.229 3.704-2.019.011-3.116.009-5.137 0-4.375-.019-6.058-1.739-7.077-4.571-.489-1.361-.53-3.278-.128-4.55 1.042-3.197 1.289-3.937 2.344-7.127.69-2.053 2.553-3.427 4.807-3.61 0 0-3.032 9.152-3.978 12.142-.57 1.866.522 4.413 3.4 4.413 2.013.023 3.272.01 5.28 0 1.163-.016 2.185-.726 2.544-1.806l10.396-32.05zm94.853-86.211h-7.925l4.477-13.61 3.632.024-3.371 10.273h4.291l-1.104 3.313z"/><path d="M198.179 166.352h-3.602l10.825-33.455c.725-2.182 2.794-3.672 5.23-3.704 2.019-.011 3.115-.009 5.137 0 4.375.019 6.058 1.739 7.076 4.572.489 1.36.531 3.278.128 4.55-1.042 3.196-1.289 3.936-2.344 7.126-.691 2.054-2.553 3.427-4.807 3.61 0 0 3.033-9.152 3.978-12.142.571-1.866-.521-4.412-3.399-4.412-2.014-.024-3.272-.011-5.281 0-1.163.015-2.185.725-2.544 1.806l-10.397 32.049zm14.034-9.583h7.924l-4.476 13.61-3.632-.024 3.371-10.273h-4.291l1.104-3.313z"/><path d="M229.856 139.436h3.602l-10.824 33.454c-.725 2.183-2.793 3.672-5.229 3.705-2.019.011-3.115.008-5.137 0-4.375-.02-6.058-1.739-7.076-4.572-.49-1.36-.531-3.278-.129-4.55 1.042-3.196 1.289-3.937 2.344-7.127.691-2.053 2.553-3.426 4.807-3.609 0 0-3.032 9.152-3.977 12.141-.572 1.867.521 4.413 3.399 4.413 2.013.024 3.272.011 5.28 0 1.164-.015 2.185-.726 2.544-1.806l10.396-32.049zm-94.131 126.196H127.8l4.477-13.61 3.632.024-3.371 10.273h4.291l-1.104 3.313z"/><path d="M118.081 282.965h-3.602l10.825-33.454c.725-2.183 2.794-3.672 5.23-3.705 2.019-.01 3.115-.008 5.137 0 4.375.02 6.058 1.739 7.076 4.572.489 1.36.531 3.278.128 4.55-1.042 3.197-1.289 3.937-2.344 7.127-.691 2.053-2.553 3.426-4.807 3.609 0 0 3.033-9.152 3.978-12.141.571-1.866-.521-4.413-3.4-4.413-2.013-.023-3.271-.01-5.28 0-1.163.015-2.185.726-2.544 1.806l-10.397 32.049zm14.034-9.582h7.924l-4.476 13.609-3.632-.023 3.37-10.274h-4.29l1.104-3.312z"/><path d="M149.758 256.049h3.602l-10.824 33.455c-.725 2.183-2.793 3.672-5.229 3.704-2.019.011-3.116.009-5.137 0-4.375-.019-6.058-1.739-7.077-4.571-.489-1.361-.53-3.279-.128-4.551 1.042-3.196 1.289-3.936 2.344-7.126.691-2.054 2.553-3.427 4.807-3.61 0 0-3.032 9.152-3.978 12.142-.571 1.866.522 4.412 3.4 4.412 2.013.024 3.272.011 5.28 0 1.163-.015 2.185-.725 2.544-1.806l10.396-32.049zm96.364-86.88h-7.924l4.476-13.609 3.632.023-3.371 10.274h4.291l-1.104 3.312z"/><path d="M228.478 186.503h-3.602l10.826-33.455c.725-2.183 2.793-3.672 5.229-3.705 2.019-.01 3.116-.008 5.137 0 4.375.02 6.058 1.74 7.077 4.572.489 1.36.53 3.278.128 4.55-1.043 3.197-1.289 3.937-2.344 7.127-.691 2.053-2.554 3.427-4.808 3.61 0 0 3.033-9.153 3.978-12.142.572-1.866-.521-4.413-3.399-4.413-2.013-.023-3.272-.01-5.281 0-1.163.015-2.184.726-2.543 1.806l-10.398 32.05zm14.034-9.583h7.925l-4.477 13.609-3.631-.023 3.37-10.274h-4.291l1.104-3.312z"/><path d="M260.155 159.586h3.602l-10.824 33.455c-.725 2.183-2.793 3.672-5.229 3.704-2.019.011-3.115.009-5.137 0-4.374-.019-6.057-1.739-7.076-4.571-.489-1.361-.531-3.278-.129-4.55 1.043-3.197 1.289-3.937 2.344-7.127.691-2.053 2.553-3.427 4.807-3.61 0 0-3.032 9.152-3.977 12.142-.571 1.866.521 4.412 3.399 4.412 2.014.024 3.272.011 5.281 0 1.163-.015 2.184-.725 2.543-1.805l10.396-32.05zm94.669-86.36h-7.925l4.477-13.61 3.632.024-3.371 10.273h4.291l-1.104 3.313z"/><path d="M337.18 90.559h-3.602l10.825-33.455c.726-2.182 2.794-3.672 5.23-3.704 2.019-.01 3.115-.009 5.137 0 4.375.02 6.058 1.739 7.076 4.572.49 1.36.531 3.278.129 4.55-1.043 3.196-1.289 3.937-2.345 7.126-.69 2.054-2.553 3.427-4.807 3.61 0 0 3.033-9.152 3.978-12.142.572-1.866-.521-4.412-3.399-4.412-2.014-.024-3.272-.011-5.281 0-1.163.015-2.184.725-2.544 1.806L337.18 90.559zm14.034-9.584h7.925l-4.477 13.61-3.631-.024 3.37-10.273h-4.291l1.104-3.313z"/><path d="M368.857 63.642h3.602l-10.824 33.455c-.725 2.182-2.793 3.672-5.229 3.704-2.019.011-3.115.009-5.137 0-4.374-.019-6.057-1.74-7.076-4.572-.489-1.36-.531-3.278-.129-4.55 1.043-3.196 1.289-3.937 2.344-7.126.691-2.054 2.553-3.427 4.807-3.61 0 0-3.032 9.152-3.977 12.142-.571 1.866.521 4.412 3.399 4.412 2.014.024 3.272.01 5.281 0 1.163-.015 2.184-.725 2.543-1.806l10.396-32.049zM194.776 74.56h-7.925l4.477-13.61 3.632.023-3.371 10.273h4.291l-1.104 3.313z"/><path d="M177.131 91.892h-3.602l10.826-33.454c.725-2.183 2.793-3.672 5.23-3.705 2.019-.01 3.115-.008 5.137 0 4.374.02 6.057 1.74 7.076 4.572.489 1.36.53 3.278.128 4.55-1.042 3.197-1.289 3.937-2.344 7.127-.691 2.053-2.553 3.427-4.807 3.61 0 0 3.032-9.153 3.978-12.142.571-1.866-.521-4.413-3.4-4.413-2.013-.023-3.272-.01-5.28 0-1.163.015-2.185.726-2.544 1.806l-10.398 32.05zm14.035-9.583h7.924l-4.476 13.61-3.632-.024 3.37-10.274h-4.29l1.104-3.312z"/><path d="M208.809 64.975h3.602L201.587 98.43c-.725 2.183-2.793 3.672-5.23 3.705-2.019.01-3.115.008-5.136 0-4.375-.02-6.058-1.74-7.077-4.572-.489-1.36-.53-3.278-.128-4.55 1.042-3.197 1.289-3.937 2.344-7.127.691-2.053 2.553-3.427 4.807-3.61 0 0-3.032 9.153-3.978 12.142-.571 1.866.522 4.413 3.4 4.413 2.013.023 3.272.01 5.28 0 1.163-.015 2.185-.726 2.544-1.806l10.396-32.05zm-94.131 126.198h-7.925l4.477-13.609 3.632.023-3.371 10.274h4.291l-1.104 3.312z"/><path d="M97.033 208.507h-3.602l10.826-33.455c.725-2.183 2.793-3.672 5.229-3.704 2.02-.011 3.116-.009 5.137 0 4.375.019 6.058 1.739 7.077 4.571.489 1.361.53 3.278.128 4.55-1.042 3.197-1.289 3.937-2.344 7.127-.691 2.054-2.553 3.427-4.807 3.61 0 0 3.032-9.152 3.978-12.142.571-1.866-.522-4.412-3.4-4.412-2.013-.024-3.272-.011-5.28 0-1.164.015-2.185.725-2.544 1.805l-10.398 32.05zm14.034-9.583h7.925l-4.476 13.609-3.632-.023 3.37-10.274h-4.29l1.103-3.312z"/><path d="M128.711 181.59h3.602l-10.824 33.455c-.725 2.183-2.794 3.672-5.23 3.705-2.019.01-3.115.008-5.137 0-4.374-.02-6.057-1.74-7.076-4.572-.489-1.36-.53-3.278-.128-4.55 1.042-3.197 1.289-3.937 2.344-7.127.691-2.053 2.553-3.427 4.807-3.61 0 0-3.032 9.153-3.978 12.142-.571 1.866.521 4.413 3.4 4.413 2.013.023 3.272.01 5.28 0 1.163-.015 2.185-.726 2.544-1.806l10.396-32.05zM48.152 297.983h3.6l-10.796 33.455c-.723 2.183-2.79 3.672-5.224 3.704-2.018.011-3.113.009-5.133 0-4.372-.019-6.055-1.739-7.075-4.571-.49-1.361-.533-3.278-.132-4.551 1.04-3.196 1.286-3.936 2.338-7.126.69-2.054 2.55-3.427 4.802-3.61 0 0-3.024 9.152-3.967 12.142-.57 1.866.523 4.412 3.4 4.412 2.012.024 3.27.011 5.277 0 1.163-.015 2.183-.725 2.541-1.805l10.37-32.05zM223.453 96.118h-7.924l4.476-13.61 3.632.024-3.371 10.274h4.291l-1.104 3.312z"/><path d="M205.809 113.452h-3.602l10.825-33.455c.726-2.183 2.794-3.672 5.23-3.705 2.019-.01 3.115-.008 5.137 0 4.375.02 6.058 1.74 7.076 4.572.49 1.36.531 3.278.129 4.55-1.043 3.197-1.289 3.937-2.345 7.127-.69 2.053-2.553 3.427-4.807 3.61 0 0 3.033-9.152 3.978-12.142.572-1.866-.521-4.413-3.399-4.413-2.014-.023-3.272-.01-5.281 0-1.163.015-2.184.726-2.544 1.806l-10.397 32.05zm14.034-9.583h7.925l-4.477 13.609-3.631-.023 3.37-10.274h-4.291l1.104-3.312z"/><path d="M237.486 86.535h3.602l-10.823 33.455c-.726 2.183-2.794 3.672-5.23 3.704-2.019.011-3.115.009-5.137 0-4.374-.019-6.057-1.739-7.076-4.571-.489-1.361-.531-3.278-.128-4.55 1.042-3.197 1.288-3.937 2.344-7.127.69-2.054 2.552-3.427 4.806-3.61 0 0-3.032 9.152-3.977 12.142-.571 1.866.521 4.412 3.399 4.412 2.014.024 3.272.011 5.281 0 1.163-.015 2.184-.725 2.544-1.805l10.395-32.05zm-94.131 126.198h-7.924l4.476-13.609 3.632.023-3.371 10.274h4.291l-1.104 3.312z"/><path d="M125.711 230.067h-3.602l10.825-33.455c.726-2.183 2.794-3.672 5.23-3.705 2.019-.01 3.115-.008 5.137 0 4.375.02 6.058 1.74 7.076 4.572.49 1.36.531 3.278.129 4.55-1.043 3.197-1.289 3.937-2.345 7.127-.69 2.053-2.553 3.427-4.807 3.61 0 0 3.033-9.153 3.978-12.142.572-1.866-.521-4.413-3.399-4.413-2.014-.023-3.272-.01-5.281 0-1.163.015-2.184.726-2.544 1.806l-10.397 32.05zm14.034-9.583h7.925l-4.477 13.609-3.631-.023 3.37-10.274h-4.291l1.104-3.312z"/><path d="M157.388 203.15h3.602l-10.824 33.455c-.725 2.183-2.793 3.672-5.229 3.704-2.019.011-3.115.009-5.137 0-4.375-.019-6.058-1.739-7.076-4.571-.49-1.361-.531-3.278-.129-4.55 1.043-3.197 1.289-3.937 2.344-7.127.691-2.054 2.553-3.427 4.807-3.61 0 0-3.032 9.152-3.977 12.142-.572 1.866.521 4.412 3.399 4.412 2.014.024 3.272.011 5.281 0 1.163-.015 2.184-.725 2.543-1.805l10.396-32.05zM62.925 328.459h-7.924l4.477-13.61 3.631.024-3.37 10.273h4.29l-1.104 3.313z"/><path d="M45.281 345.792H41.68l10.825-33.454c.726-2.183 2.794-3.672 5.23-3.705 2.02-.01 3.115-.008 5.137 0 4.375.02 6.058 1.739 7.077 4.572.489 1.36.53 3.278.128 4.55-1.043 3.196-1.29 3.937-2.344 7.127-.691 2.053-2.554 3.426-4.808 3.609 0 0 3.033-9.152 3.978-12.141.572-1.867-.52-4.413-3.4-4.413-2.012-.023-3.271-.011-5.28 0-1.163.015-2.184.726-2.543 1.806l-10.4 32.049zm14.034-9.583h7.925l-4.477 13.61-3.631-.024 3.37-10.273h-4.29l1.103-3.313z"/><path d="M76.959 318.876h3.602l-10.824 33.455c-.725 2.182-2.794 3.672-5.23 3.704-2.019.011-3.115.009-5.137 0-4.374-.019-6.057-1.739-7.076-4.572-.49-1.36-.53-3.278-.128-4.55 1.042-3.196 1.289-3.936 2.344-7.126.69-2.054 2.553-3.427 4.806-3.61 0 0-3.032 9.152-3.977 12.142-.571 1.866.521 4.412 3.4 4.412 2.013.024 3.271.011 5.28 0 1.163-.015 2.184-.725 2.544-1.806l10.395-32.049zm175.282-201.939h-7.924l4.476-13.61 3.632.024-3.371 10.273h4.291l-1.104 3.313z"/><path d="M234.597 134.27h-3.602l10.825-33.454c.726-2.183 2.794-3.672 5.23-3.705 2.019-.01 3.115-.008 5.137 0 4.375.02 6.058 1.74 7.077 4.572.489 1.36.53 3.278.128 4.55-1.043 3.196-1.289 3.937-2.345 7.127-.69 2.053-2.553 3.426-4.807 3.609 0 0 3.033-9.152 3.978-12.141.572-1.867-.521-4.413-3.399-4.413-2.013-.023-3.272-.011-5.281 0-1.163.015-2.184.726-2.543 1.806l-10.398 32.049zm14.034-9.583h7.925l-4.477 13.61-3.631-.024 3.37-10.273h-4.291l1.104-3.313z"/><path d="M266.274 107.354h3.602l-10.823 33.455c-.726 2.182-2.794 3.672-5.23 3.704-2.019.011-3.115.009-5.137 0-4.374-.019-6.057-1.739-7.076-4.571-.489-1.361-.531-3.279-.129-4.551 1.043-3.196 1.289-3.936 2.345-7.126.69-2.054 2.552-3.427 4.806-3.61 0 0-3.032 9.152-3.977 12.142-.571 1.866.521 4.412 3.399 4.412 2.014.024 3.272.011 5.281 0 1.163-.015 2.184-.725 2.543-1.806l10.396-32.049zm77.024-69.027h-3.6l10.799-33.455c.723-2.183 2.789-3.672 5.224-3.704a453.59 453.59 0 015.134 0c4.372.02 6.055 1.739 7.075 4.571.49 1.36.532 3.279.131 4.55-1.04 3.197-1.286 3.937-2.339 7.127-.689 2.054-2.549 3.427-4.802 3.61 0 0 3.025-9.152 3.968-12.142.57-1.866-.523-4.412-3.4-4.412-2.012-.024-3.27-.011-5.277 0-1.163.015-2.183.725-2.541 1.806l-10.372 32.049zm14.016-9.583h7.925l-4.476 13.61-3.632-.024 3.37-10.274h-4.29l1.103-3.312z"/><path d="M374.958 11.41h3.602l-10.824 33.455c-.725 2.183-2.794 3.672-5.23 3.705-2.019.01-3.115.008-5.137 0-4.374-.02-6.057-1.74-7.076-4.572-.489-1.36-.53-3.278-.128-4.55 1.042-3.197 1.289-3.937 2.344-7.127.69-2.053 2.553-3.426 4.807-3.61 0 0-3.033 9.153-3.978 12.142-.571 1.866.521 4.413 3.4 4.413 2.013.023 3.271.01 5.28 0 1.163-.015 2.184-.726 2.544-1.806l10.396-32.05zM172.125 233.552H164.2l4.477-13.61 3.632.024-3.371 10.273h4.291l-1.104 3.313z"/><path d="M154.481 250.885h-3.602l10.825-33.455c.725-2.182 2.794-3.672 5.23-3.704 2.019-.011 3.115-.009 5.137 0 4.375.019 6.058 1.739 7.076 4.572.489 1.36.531 3.278.128 4.55-1.042 3.196-1.289 3.937-2.344 7.127-.691 2.053-2.553 3.426-4.807 3.609 0 0 3.033-9.152 3.978-12.142.571-1.866-.521-4.412-3.399-4.412-2.014-.024-3.272-.011-5.281 0-1.163.015-2.185.725-2.544 1.806l-10.397 32.049zm14.034-9.583h7.924l-4.476 13.61-3.632-.024 3.371-10.273h-4.291l1.104-3.313z"/><path d="M186.158 223.969h3.602l-10.824 33.455c-.725 2.182-2.793 3.672-5.229 3.704-2.019.011-3.115.009-5.137 0-4.375-.019-6.058-1.739-7.076-4.572-.49-1.36-.531-3.278-.129-4.55 1.043-3.196 1.289-3.937 2.344-7.127.691-2.053 2.553-3.426 4.807-3.609 0 0-3.032 9.152-3.977 12.142-.572 1.866.521 4.412 3.399 4.412 2.013.024 3.272.011 5.28 0 1.164-.015 2.185-.725 2.544-1.806l10.396-32.049zm96.383-86.88h-7.925l4.477-13.61 3.632.024-3.371 10.273h4.291l-1.104 3.313z"/><path d="M264.896 154.422h-3.602l10.826-33.455c.725-2.182 2.793-3.672 5.23-3.704 2.019-.011 3.115-.008 5.137 0 4.374.02 6.057 1.739 7.076 4.572.489 1.36.53 3.278.128 4.55-1.042 3.196-1.289 3.937-2.344 7.127-.691 2.053-2.553 3.426-4.807 3.609 0 0 3.032-9.152 3.978-12.142.571-1.866-.521-4.412-3.4-4.412-2.013-.024-3.272-.011-5.28 0-1.163.015-2.185.725-2.544 1.806l-10.398 32.049zm14.035-9.583h7.924l-4.476 13.61-3.632-.024 3.371-10.273h-4.291l1.104-3.313z"/><path d="M296.574 127.506h3.602l-10.824 33.455c-.725 2.182-2.793 3.672-5.23 3.704-2.019.011-3.115.009-5.136 0-4.375-.019-6.058-1.739-7.077-4.572-.489-1.36-.53-3.278-.128-4.55 1.042-3.196 1.289-3.937 2.344-7.126.691-2.054 2.553-3.427 4.807-3.61 0 0-3.032 9.152-3.978 12.142-.571 1.866.522 4.412 3.4 4.412 2.013.024 3.272.011 5.28 0 1.163-.015 2.185-.725 2.544-1.806l10.396-32.049zm94.668-86.361h-7.924l4.477-13.61 3.631.024-3.37 10.273h4.29l-1.104 3.313z"/><path d="M373.598 58.478h-3.602l10.826-33.455c.725-2.182 2.793-3.672 5.229-3.704 2.02-.011 3.116-.009 5.137 0 4.375.02 6.058 1.739 7.077 4.572.489 1.36.53 3.278.128 4.55-1.042 3.196-1.289 3.936-2.344 7.126-.691 2.054-2.553 3.427-4.807 3.61 0 0 3.032-9.152 3.978-12.142.571-1.866-.522-4.412-3.4-4.412-2.013-.024-3.272-.011-5.28 0-1.164.015-2.185.725-2.544 1.806l-10.398 32.049zm14.034-9.583h7.925l-4.477 13.61-3.631-.024 3.37-10.273h-4.291l1.104-3.313z"/><path d="M405.275 31.562h3.603l-10.824 33.454c-.726 2.183-2.794 3.672-5.23 3.705-2.019.01-3.115.008-5.137 0-4.374-.02-6.057-1.74-7.076-4.572-.489-1.36-.531-3.278-.128-4.55 1.042-3.196 1.289-3.937 2.344-7.127.69-2.053 2.553-3.426 4.806-3.61 0 0-3.032 9.153-3.977 12.142-.571 1.867.521 4.413 3.4 4.413 2.013.023 3.271.01 5.28 0 1.163-.015 2.184-.726 2.544-1.806l10.395-32.05zM122.234 138.126h-7.925l4.477-13.609 3.632.023-3.371 10.274h4.291l-1.104 3.312z"/><path d="M104.59 155.46h-3.602l10.825-33.455c.725-2.183 2.794-3.672 5.23-3.705 2.019-.01 3.115-.008 5.137 0 4.375.02 6.058 1.74 7.076 4.572.49 1.361.531 3.278.129 4.55-1.043 3.197-1.29 3.937-2.345 7.127-.691 2.053-2.553 3.427-4.807 3.61 0 0 3.033-9.152 3.978-12.142.572-1.866-.521-4.413-3.399-4.413-2.014-.023-3.272-.01-5.281 0-1.163.015-2.184.726-2.544 1.806l-10.397 32.05zm14.034-9.583h7.924l-4.476 13.609-3.632-.023 3.371-10.274h-4.291l1.104-3.312z"/><path d="M136.267 128.543h3.602l-10.824 33.455c-.725 2.183-2.793 3.672-5.229 3.704-2.019.011-3.115.009-5.137 0-4.375-.019-6.058-1.739-7.076-4.571-.49-1.361-.531-3.278-.129-4.55 1.043-3.197 1.289-3.937 2.344-7.127.691-2.053 2.553-3.427 4.807-3.61 0 0-3.032 9.152-3.977 12.142-.572 1.866.521 4.413 3.399 4.413 2.014.023 3.272.01 5.281 0 1.163-.016 2.184-.726 2.543-1.806l10.396-32.05zM24.51 272.075h-3.6l10.798-33.455c.723-2.183 2.79-3.672 5.224-3.705 2.018-.01 3.114-.008 5.134 0 4.372.02 6.055 1.74 7.075 4.572.49 1.361.532 3.278.131 4.55-1.04 3.197-1.286 3.937-2.338 7.127-.69 2.053-2.55 3.427-4.803 3.61 0 0 3.026-9.152 3.969-12.142.57-1.866-.524-4.413-3.4-4.413-2.013-.023-3.27-.01-5.278 0-1.162.015-2.183.726-2.541 1.806l-10.372 32.05zm31.623-26.917h3.6l-10.797 33.455c-.723 2.183-2.79 3.672-5.224 3.704-2.018.011-3.113.009-5.134 0-4.372-.019-6.055-1.739-7.075-4.571-.49-1.361-.532-3.278-.13-4.55 1.039-3.197 1.285-3.937 2.338-7.127.689-2.054 2.549-3.427 4.801-3.61 0 0-3.025 9.152-3.968 12.142-.57 1.866.524 4.412 3.4 4.412 2.013.024 3.27.011 5.278 0 1.163-.015 2.183-.725 2.541-1.805l10.37-32.05zm91.187-77.722h7.924l-4.476 13.61-3.632-.024 3.371-10.273h-4.291l1.104-3.313z"/><path d="M164.963 150.103h3.602l-10.824 33.455c-.725 2.183-2.793 3.672-5.229 3.704-2.019.011-3.115.009-5.137 0-4.375-.019-6.058-1.739-7.076-4.571-.49-1.361-.531-3.279-.129-4.551 1.043-3.196 1.289-3.936 2.344-7.126.691-2.054 2.553-3.427 4.807-3.61 0 0-3.032 9.152-3.977 12.142-.572 1.866.521 4.412 3.399 4.412 2.013.024 3.272.011 5.28 0 1.164-.015 2.185-.725 2.544-1.806l10.396-32.049zm94.65-86.435h-7.924l4.476-13.61 3.632.024-3.371 10.274h4.291l-1.104 3.312z"/><path d="M241.969 81.002h-3.602l10.826-33.455c.725-2.183 2.793-3.672 5.229-3.704 2.019-.011 3.116-.01 5.137 0 4.375.019 6.058 1.739 7.077 4.571.489 1.36.53 3.278.128 4.55-1.043 3.197-1.289 3.937-2.344 7.127-.691 2.053-2.554 3.427-4.808 3.61 0 0 3.033-9.153 3.978-12.142.572-1.866-.521-4.413-3.399-4.413-2.013-.023-3.272-.01-5.281 0-1.163.015-2.184.726-2.543 1.806l-10.398 32.05zm14.034-9.584h7.925l-4.477 13.61-3.631-.024 3.37-10.273h-4.291l1.104-3.313z"/><path d="M273.646 54.085h3.602l-10.824 33.454c-.725 2.183-2.793 3.672-5.229 3.705-2.019.01-3.115.008-5.137 0-4.374-.02-6.057-1.74-7.076-4.572-.489-1.36-.531-3.278-.129-4.55 1.043-3.197 1.289-3.937 2.344-7.127.691-2.053 2.553-3.426 4.807-3.61 0 0-3.032 9.153-3.977 12.142-.571 1.867.521 4.413 3.399 4.413 2.014.023 3.272.01 5.281 0 1.163-.015 2.184-.726 2.543-1.806l10.396-32.05zM70.814 276.301h-7.925l4.477-13.61 3.632.024-3.371 10.273h4.29l-1.103 3.313z"/><path d="M53.17 293.634h-3.603l10.826-33.455c.725-2.182 2.793-3.672 5.23-3.704 2.019-.011 3.115-.009 5.136 0 4.375.019 6.058 1.739 7.077 4.572.49 1.36.53 3.278.128 4.55-1.043 3.196-1.29 3.937-2.344 7.127-.691 2.053-2.553 3.426-4.808 3.609 0 0 3.033-9.152 3.979-12.142.571-1.866-.522-4.412-3.4-4.412-2.013-.024-3.272-.011-5.28 0-1.164.015-2.185.725-2.544 1.806l-10.398 32.049zm14.033-9.583h7.925l-4.477 13.61-3.631-.024 3.37-10.273H66.1l1.103-3.313z"/><path d="M84.847 266.718h3.602l-10.824 33.455c-.725 2.182-2.794 3.672-5.23 3.704-2.019.011-3.115.009-5.136 0-4.375-.019-6.058-1.739-7.077-4.572-.49-1.36-.53-3.278-.128-4.55 1.042-3.196 1.289-3.937 2.344-7.127.69-2.053 2.553-3.426 4.807-3.609 0 0-3.032 9.152-3.978 12.142-.571 1.866.521 4.412 3.4 4.412 2.013.024 3.272.011 5.28 0 1.163-.015 2.184-.725 2.544-1.806l10.396-32.049zm94.853-86.213h-7.925l4.477-13.61 3.632.024-3.371 10.273h4.291l-1.104 3.313z"/><path d="M162.055 197.838h-3.602l10.826-33.455c.725-2.182 2.793-3.672 5.23-3.704 2.019-.011 3.115-.009 5.137 0 4.374.019 6.057 1.739 7.076 4.572.489 1.36.53 3.278.128 4.55-1.042 3.196-1.289 3.937-2.344 7.126-.691 2.054-2.553 3.427-4.807 3.61 0 0 3.032-9.152 3.978-12.142.571-1.866-.521-4.412-3.4-4.412-2.013-.024-3.272-.011-5.28 0-1.163.015-2.185.725-2.544 1.806l-10.398 32.049zm14.034-9.583h7.925l-4.476 13.61-3.632-.024 3.37-10.273h-4.29l1.103-3.313z"/><path d="M193.733 170.922h3.602l-10.824 33.455c-.725 2.182-2.793 3.672-5.23 3.704-2.019.011-3.115.008-5.136 0-4.375-.02-6.058-1.739-7.077-4.572-.489-1.36-.53-3.278-.128-4.55 1.042-3.196 1.289-3.937 2.344-7.127.691-2.053 2.553-3.426 4.807-3.609 0 0-3.032 9.152-3.978 12.142-.571 1.866.522 4.412 3.4 4.412 2.013.024 3.272.011 5.28 0 1.163-.015 2.185-.725 2.544-1.806l10.396-32.049zm94.65-86.362h-7.925l4.477-13.61 3.632.024-3.371 10.274h4.291l-1.104 3.312z"/><path d="M270.739 101.894h-3.602l10.825-33.455c.725-2.183 2.794-3.672 5.23-3.704 2.019-.011 3.115-.009 5.137 0 4.375.019 6.058 1.739 7.076 4.571.49 1.36.531 3.278.129 4.55-1.043 3.197-1.29 3.937-2.345 7.127-.691 2.053-2.553 3.427-4.807 3.61 0 0 3.033-9.152 3.978-12.142.571-1.866-.521-4.412-3.399-4.412-2.014-.024-3.272-.011-5.281 0-1.163.015-2.185.725-2.544 1.805l-10.397 32.05zm14.034-9.584h7.924l-4.476 13.61-3.632-.023 3.371-10.274h-4.291l1.104-3.312z"/><path d="M302.416 74.977h3.602l-10.824 33.455c-.725 2.183-2.793 3.672-5.229 3.705-2.019.01-3.115.008-5.137 0-4.375-.02-6.058-1.74-7.076-4.572-.49-1.361-.531-3.278-.129-4.55 1.043-3.197 1.289-3.937 2.344-7.127.691-2.053 2.553-3.427 4.807-3.61 0 0-3.032 9.152-3.977 12.142-.572 1.866.521 4.413 3.399 4.413 2.013.023 3.272.01 5.28 0 1.164-.015 2.185-.726 2.544-1.806l10.396-32.05zM99.583 297.12H91.66l4.476-13.61 3.632.024-3.37 10.273h4.29l-1.104 3.313z"/><path d="M81.939 314.453h-3.602l10.825-33.455c.726-2.182 2.794-3.672 5.23-3.704 2.02-.011 3.115-.009 5.137 0 4.375.019 6.058 1.739 7.076 4.572.49 1.36.531 3.278.129 4.55-1.043 3.196-1.289 3.937-2.345 7.126-.69 2.054-2.553 3.427-4.807 3.61 0 0 3.033-9.152 3.978-12.142.572-1.866-.521-4.412-3.399-4.412-2.014-.024-3.272-.011-5.28 0-1.164.015-2.185.725-2.545 1.806L81.94 314.453zm14.034-9.583h7.925l-4.477 13.61-3.631-.024 3.37-10.273h-4.29l1.103-3.313z"/><path d="M113.616 287.537h3.602l-10.823 33.455c-.726 2.182-2.794 3.672-5.23 3.704-2.019.011-3.115.008-5.137 0-4.374-.02-6.057-1.739-7.076-4.572-.49-1.36-.53-3.278-.129-4.55 1.043-3.196 1.29-3.937 2.345-7.127.69-2.053 2.552-3.426 4.806-3.609 0 0-3.032 9.152-3.977 12.141-.571 1.867.521 4.413 3.4 4.413 2.013.024 3.271.011 5.28 0 1.163-.015 2.184-.725 2.544-1.806l10.395-32.049zm96.383-86.88h-7.925l4.477-13.61 3.632.024-3.371 10.273h4.291l-1.104 3.313z"/><path d="M192.355 217.99h-3.602l10.825-33.455c.725-2.182 2.794-3.672 5.23-3.704 2.019-.011 3.115-.009 5.137 0 4.375.019 6.058 1.739 7.076 4.572.49 1.36.531 3.278.129 4.55-1.043 3.196-1.29 3.937-2.345 7.127-.691 2.053-2.553 3.426-4.807 3.609 0 0 3.033-9.152 3.978-12.142.572-1.866-.521-4.412-3.399-4.412-2.014-.024-3.272-.011-5.281 0-1.163.015-2.184.725-2.544 1.806l-10.397 32.049zm14.034-9.583h7.924l-4.476 13.61-3.631-.024 3.37-10.273h-4.291l1.104-3.313z"/><path d="M224.032 191.074h3.602l-10.824 33.455c-.725 2.182-2.793 3.672-5.229 3.704-2.019.011-3.115.009-5.137 0-4.375-.019-6.058-1.739-7.076-4.572-.49-1.36-.531-3.278-.129-4.55 1.043-3.196 1.289-3.937 2.344-7.127.691-2.053 2.553-3.426 4.807-3.609 0 0-3.032 9.152-3.977 12.142-.572 1.866.521 4.412 3.399 4.412 2.014.024 3.272.011 5.281 0 1.163-.015 2.184-.725 2.543-1.806l10.396-32.049zm94.669-86.362h-7.925l4.477-13.61 3.632.024-3.371 10.274h4.291l-1.104 3.312z"/><path d="M301.057 122.046h-3.603l10.826-33.455c.725-2.183 2.794-3.672 5.23-3.704 2.019-.011 3.115-.009 5.137 0 4.375.02 6.058 1.739 7.076 4.571.489 1.36.531 3.279.128 4.55-1.042 3.197-1.289 3.937-2.344 7.127-.691 2.054-2.553 3.427-4.807 3.61 0 0 3.032-9.152 3.978-12.142.571-1.866-.521-4.412-3.4-4.412-2.013-.024-3.271-.011-5.28 0-1.163.015-2.185.725-2.544 1.805l-10.397 32.05zm14.034-9.583h7.924l-4.476 13.61-3.632-.024 3.371-10.274h-4.291l1.104-3.312z"/><path d="M332.734 95.13h3.602l-10.824 33.454c-.725 2.183-2.793 3.672-5.229 3.705-2.019.01-3.115.008-5.137 0-4.375-.02-6.058-1.74-7.076-4.572-.49-1.36-.531-3.278-.129-4.55 1.043-3.197 1.289-3.937 2.344-7.127.691-2.053 2.553-3.427 4.807-3.609 0 0-3.032 9.152-3.977 12.141-.572 1.866.521 4.413 3.399 4.413 2.013.023 3.272.01 5.28 0 1.164-.015 2.185-.726 2.544-1.806l10.396-32.05zM441.418 0h3.599l-10.796 33.455c-.723 2.183-2.789 3.672-5.224 3.704-2.017.011-3.113.009-5.133 0-4.372-.02-6.055-1.739-7.075-4.572-.49-1.36-.532-3.278-.131-4.55 1.039-3.196 1.285-3.936 2.338-7.126.689-2.054 2.549-3.427 4.801-3.61 0 0-3.024 9.152-3.967 12.142-.57 1.866.524 4.412 3.4 4.412 2.012.024 3.27.011 5.277 0 1.163-.015 2.183-.725 2.541-1.806L441.418 0zM8.773 377.244h-3.6l10.799-33.455c.723-2.183 2.79-3.672 5.224-3.704 2.018-.011 3.114-.009 5.134 0 4.373.019 6.056 1.739 7.075 4.571.49 1.361.532 3.279.131 4.551-1.04 3.196-1.286 3.936-2.338 7.126-.69 2.054-2.55 3.427-4.802 3.61 0 0 3.025-9.152 3.968-12.142.57-1.866-.524-4.412-3.4-4.412-2.012-.024-3.27-.011-5.278 0-1.162.015-2.183.725-2.54 1.806L8.772 377.244zm31.624-26.917h3.6L33.2 383.782c-.723 2.183-2.79 3.672-5.224 3.705-2.018.01-3.113.008-5.134 0-4.372-.02-6.055-1.74-7.074-4.572-.49-1.36-.533-3.278-.132-4.55 1.04-3.197 1.286-3.937 2.339-7.127.689-2.053 2.549-3.427 4.801-3.61 0 0-3.024 9.153-3.967 12.142-.57 1.866.523 4.413 3.4 4.413 2.012.023 3.27.01 5.277 0 1.163-.015 2.183-.726 2.541-1.806l10.37-32.05zm15.086 28.105h-7.925l4.477-13.609 3.632.023-3.37 10.274h4.29l-1.104 3.312z"/><path d="M37.839 395.766h-3.602l10.825-33.455c.726-2.183 2.794-3.672 5.23-3.704a439.8 439.8 0 015.137 0c4.375.019 6.058 1.739 7.076 4.571.49 1.361.53 3.278.129 4.551-1.043 3.196-1.29 3.936-2.345 7.126-.69 2.054-2.553 3.427-4.807 3.61 0 0 3.033-9.152 3.978-12.142.572-1.866-.52-4.412-3.4-4.412-2.013-.024-3.271-.011-5.28 0-1.163.015-2.184.725-2.544 1.805l-10.397 32.05zm14.034-9.583h7.924l-4.476 13.609-3.632-.023 3.37-10.274h-4.29l1.104-3.312z"/><path d="M69.516 368.85h3.602l-10.824 33.454c-.725 2.183-2.793 3.672-5.23 3.705-2.018.01-3.114.008-5.136 0-4.375-.02-6.058-1.74-7.076-4.572-.49-1.36-.53-3.278-.129-4.55 1.043-3.197 1.29-3.937 2.344-7.127.691-2.053 2.553-3.427 4.807-3.609 0 0-3.032 9.152-3.977 12.141-.572 1.866.521 4.413 3.4 4.413 2.013.023 3.271.01 5.28 0 1.163-.015 2.184-.726 2.543-1.806l10.396-32.049zm14.664 31.142h-7.926l4.477-13.609 3.632.023-3.37 10.274h4.29l-1.104 3.312z"/><path d="M66.535 417.326h-3.602l10.825-33.455c.725-2.183 2.794-3.672 5.23-3.705 2.019-.01 3.115-.008 5.137 0 4.375.02 6.058 1.74 7.076 4.572.49 1.36.53 3.278.129 4.55-1.043 3.197-1.29 3.937-2.345 7.127-.69 2.053-2.553 3.427-4.807 3.61 0 0 3.033-9.153 3.978-12.142.572-1.866-.521-4.413-3.4-4.413-2.013-.023-3.271-.01-5.28 0-1.163.015-2.184.726-2.544 1.806l-10.397 32.05zm14.034-9.583h7.924l-4.476 13.609-3.632-.023 3.37-10.274h-4.29l1.104-3.312z"/><path d="M98.212 390.409h3.602L90.99 423.864c-.725 2.183-2.793 3.672-5.23 3.704a439.8 439.8 0 01-5.136 0c-4.375-.019-6.058-1.739-7.076-4.571-.49-1.361-.53-3.278-.129-4.55 1.043-3.197 1.29-3.937 2.344-7.127.691-2.053 2.553-3.427 4.807-3.61 0 0-3.032 9.152-3.977 12.142-.572 1.866.52 4.412 3.4 4.412 2.013.024 3.271.011 5.28 0 1.163-.015 2.184-.725 2.543-1.805l10.396-32.05zm14.737 30.402h-7.925l4.477-13.61 3.632.024-3.371 10.273h4.291l-1.104 3.313z"/><path d="M95.305 438.144h-3.603l10.826-33.454c.725-2.183 2.794-3.672 5.23-3.705 2.019-.01 3.115-.008 5.137 0 4.374.02 6.057 1.739 7.076 4.572.489 1.36.531 3.278.128 4.55-1.042 3.196-1.289 3.937-2.344 7.127-.691 2.053-2.553 3.426-4.807 3.609 0 0 3.032-9.152 3.978-12.141.571-1.866-.521-4.413-3.4-4.413-2.013-.023-3.272-.011-5.28 0-1.163.015-2.185.726-2.544 1.806l-10.397 32.049zm14.034-9.582h7.924l-4.476 13.609-3.632-.024 3.37-10.273h-4.29l1.104-3.312z"/><path d="M126.982 411.228h3.602l-10.824 33.455c-.725 2.183-2.793 3.672-5.229 3.704-2.019.011-3.116.009-5.137 0-4.375-.019-6.058-1.739-7.077-4.571-.489-1.361-.53-3.279-.128-4.551 1.042-3.196 1.289-3.936 2.344-7.126.691-2.054 2.553-3.427 4.807-3.61 0 0-3.032 9.152-3.978 12.142-.571 1.866.522 4.412 3.4 4.412 2.013.024 3.272.011 5.28 0 1.163-.015 2.185-.725 2.544-1.806l10.396-32.049zm-52.707-47.542h-3.6l10.798-33.455c.724-2.183 2.79-3.672 5.225-3.704 2.018-.011 3.113-.009 5.134 0 4.372.019 6.055 1.739 7.075 4.571.49 1.361.532 3.278.13 4.55-1.04 3.197-1.286 3.937-2.338 7.127-.69 2.054-2.55 3.427-4.802 3.61 0 0 3.025-9.152 3.968-12.142.57-1.866-.523-4.413-3.4-4.413-2.012-.023-3.27-.01-5.278 0-1.162.016-2.182.726-2.54 1.806l-10.372 32.05zm14.016-9.583h7.925l-4.477 13.609-3.631-.023 3.37-10.274h-4.29l1.103-3.312z"/><path d="M105.935 336.769h3.602l-10.824 33.455c-.725 2.183-2.794 3.672-5.23 3.705-2.019.01-3.115.008-5.137 0-4.374-.02-6.057-1.74-7.076-4.572-.49-1.361-.53-3.278-.128-4.55 1.042-3.197 1.289-3.937 2.344-7.127.69-2.053 2.553-3.427 4.807-3.61 0 0-3.033 9.152-3.978 12.142-.571 1.866.521 4.413 3.4 4.413 2.013.023 3.271.01 5.28 0 1.163-.015 2.184-.726 2.544-1.806l10.396-32.05zm14.662 31.069h-7.924l4.477-13.61 3.631.024-3.37 10.273h4.29l-1.104 3.313z"/><path d="M102.953 385.171h-3.602l10.826-33.455c.725-2.182 2.793-3.672 5.229-3.704 2.019-.011 3.116-.008 5.137 0 4.375.02 6.058 1.739 7.077 4.572.489 1.36.53 3.278.128 4.55-1.043 3.196-1.289 3.937-2.344 7.127-.691 2.053-2.554 3.426-4.808 3.609 0 0 3.033-9.152 3.978-12.141.572-1.867-.521-4.413-3.399-4.413-2.013-.024-3.272-.011-5.281 0-1.163.015-2.184.725-2.543 1.806l-10.398 32.049zm14.034-9.583h7.925l-4.477 13.61-3.631-.024 3.37-10.273h-4.291l1.104-3.313z"/><path d="M134.63 358.255h3.602l-10.824 33.455c-.725 2.182-2.793 3.672-5.229 3.704-2.019.011-3.115.009-5.137 0-4.374-.019-6.057-1.739-7.076-4.572-.489-1.36-.531-3.278-.129-4.55 1.043-3.196 1.289-3.937 2.344-7.126.691-2.054 2.553-3.427 4.807-3.61 0 0-3.032 9.152-3.977 12.142-.571 1.866.521 4.412 3.399 4.412 2.014.024 3.272.011 5.281 0 1.163-.015 2.184-.725 2.543-1.806l10.396-32.049zM40.168 483.564h-7.925l4.477-13.61 3.632.024-3.371 10.273h4.29l-1.103 3.313z"/><path d="M22.523 500.897h-3.602l10.826-33.455c.725-2.182 2.793-3.672 5.23-3.704 2.019-.011 3.115-.009 5.137 0 4.374.019 6.057 1.739 7.076 4.572.49 1.36.53 3.278.128 4.55-1.042 3.196-1.29 3.937-2.344 7.127-.691 2.053-2.553 3.426-4.807 3.609 0 0 3.032-9.152 3.978-12.142.571-1.866-.522-4.412-3.4-4.412-2.013-.024-3.272-.011-5.28 0-1.164.015-2.185.725-2.544 1.806l-10.398 32.049zm14.034-9.583h7.925l-4.477 13.61-3.631-.024 3.37-10.273h-4.29l1.103-3.313z"/><path d="M54.2 473.981h3.603l-10.824 33.455c-.725 2.182-2.794 3.672-5.23 3.704-2.019.011-3.115.009-5.137 0-4.374-.019-6.057-1.739-7.076-4.572-.49-1.36-.53-3.278-.128-4.55 1.042-3.196 1.289-3.937 2.344-7.127.69-2.053 2.553-3.426 4.807-3.609 0 0-3.032 9.152-3.978 12.142-.571 1.866.521 4.412 3.4 4.412 2.013.024 3.271.011 5.28 0 1.163-.015 2.184-.725 2.544-1.806L54.2 473.981zm95.167-85.25h-7.925l4.477-13.61 3.632.024-3.371 10.273h4.291l-1.104 3.313z"/><path d="M131.723 406.064h-3.602l10.825-33.455c.725-2.182 2.794-3.672 5.23-3.704 2.019-.011 3.115-.009 5.137 0 4.375.019 6.058 1.739 7.076 4.572.49 1.36.531 3.278.129 4.55-1.043 3.196-1.29 3.937-2.345 7.126-.691 2.054-2.553 3.427-4.807 3.61 0 0 3.033-9.152 3.978-12.142.571-1.866-.521-4.412-3.399-4.412-2.014-.024-3.272-.011-5.281 0-1.163.015-2.185.725-2.544 1.806l-10.397 32.049zm14.034-9.583h7.924l-4.476 13.61-3.632-.024 3.371-10.273h-4.291l1.104-3.313z"/><path d="M163.4 379.148h3.602l-10.824 33.455c-.725 2.182-2.793 3.672-5.229 3.704-2.019.011-3.115.009-5.137 0-4.375-.019-6.058-1.739-7.076-4.572-.49-1.36-.531-3.278-.129-4.55 1.042-3.196 1.289-3.937 2.344-7.127.691-2.053 2.553-3.426 4.807-3.609 0 0-3.032 9.152-3.978 12.142-.571 1.866.522 4.412 3.4 4.412 2.013.024 3.272.011 5.28 0 1.164-.015 2.185-.725 2.544-1.806l10.396-32.049zM33.375 400.337h3.6l-10.796 33.455c-.724 2.182-2.79 3.672-5.224 3.704-2.018.011-3.113.009-5.134 0-4.372-.019-6.055-1.739-7.075-4.572-.49-1.36-.532-3.278-.131-4.55 1.04-3.196 1.286-3.937 2.338-7.126.689-2.054 2.55-3.427 4.802-3.61 0 0-3.025 9.152-3.968 12.142-.57 1.866.524 4.412 3.4 4.412 2.013.024 3.27.011 5.278 0 1.162-.015 2.182-.725 2.54-1.806l10.37-32.049zm14.681 31.069H40.13l4.477-13.61 3.632.024-3.371 10.273h4.29l-1.103 3.313z"/><path d="M30.412 448.739h-3.603l10.826-33.455c.725-2.182 2.794-3.672 5.23-3.704 2.019-.011 3.115-.009 5.137 0 4.374.019 6.057 1.739 7.076 4.572.49 1.36.53 3.278.128 4.55-1.042 3.196-1.289 3.936-2.344 7.126-.69 2.054-2.553 3.427-4.807 3.61 0 0 3.032-9.152 3.978-12.142.571-1.866-.521-4.412-3.4-4.412-2.013-.024-3.272-.011-5.28 0-1.163.015-2.185.725-2.544 1.806l-10.397 32.049zm14.034-9.583h7.924l-4.476 13.61-3.632-.024 3.37-10.273h-4.29l1.104-3.313z"/><path d="M62.089 421.823h3.602l-10.824 33.454c-.725 2.183-2.793 3.672-5.23 3.705-2.019.01-3.115.008-5.136 0-4.375-.02-6.058-1.739-7.077-4.572-.489-1.36-.53-3.278-.128-4.55 1.042-3.196 1.289-3.937 2.344-7.127.69-2.053 2.553-3.426 4.807-3.609 0 0-3.032 9.152-3.978 12.141-.571 1.867.522 4.413 3.4 4.413 2.013.023 3.272.011 5.28 0 1.163-.015 2.185-.726 2.544-1.806l10.396-32.049zm14.736 30.476h-7.924l4.477-13.61 3.631.024-3.37 10.273h4.29l-1.104 3.313z"/><path d="M59.181 469.632H55.58l10.825-33.455c.726-2.182 2.794-3.672 5.23-3.704 2.02-.011 3.116-.009 5.137 0 4.375.019 6.058 1.739 7.077 4.572.489 1.36.53 3.278.128 4.55-1.043 3.196-1.29 3.936-2.344 7.126-.691 2.054-2.554 3.427-4.808 3.61 0 0 3.033-9.152 3.978-12.142.572-1.866-.52-4.412-3.4-4.412-2.012-.024-3.27-.011-5.28 0-1.163.015-2.184.725-2.543 1.806l-10.4 32.049zm14.034-9.583h7.925l-4.477 13.61-3.631-.024 3.37-10.273h-4.29l1.103-3.313z"/><path d="M90.859 442.716h3.602l-10.824 33.455c-.725 2.182-2.794 3.672-5.23 3.704-2.019.011-3.115.008-5.137 0-4.374-.02-6.057-1.739-7.076-4.572-.49-1.36-.53-3.278-.128-4.55 1.042-3.196 1.289-3.937 2.344-7.127.69-2.053 2.553-3.426 4.806-3.609 0 0-3.032 9.152-3.977 12.141-.571 1.867.521 4.413 3.4 4.413 2.013.024 3.271.011 5.28 0 1.163-.015 2.184-.726 2.544-1.806l10.396-32.049zM330.232 143.37h-3.6l10.799-33.455c.723-2.182 2.79-3.672 5.224-3.704 2.018-.011 3.114-.008 5.134 0 4.372.02 6.055 1.739 7.075 4.572.49 1.36.532 3.278.131 4.55-1.04 3.196-1.286 3.937-2.339 7.127-.689 2.053-2.549 3.426-4.802 3.609 0 0 3.026-9.152 3.969-12.141.57-1.867-.524-4.413-3.401-4.413-2.012-.024-3.269-.011-5.277 0-1.162.015-2.183.725-2.541 1.806l-10.372 32.049zm31.624-26.916h3.6l-10.797 33.455c-.723 2.182-2.789 3.672-5.224 3.704-2.018.011-3.113.009-5.134 0-4.372-.019-6.055-1.739-7.075-4.572-.489-1.36-.532-3.278-.131-4.55 1.04-3.196 1.286-3.937 2.338-7.126.69-2.054 2.55-3.427 4.802-3.61 0 0-3.024 9.152-3.967 12.142-.57 1.866.523 4.412 3.4 4.412 2.012.024 3.27.011 5.277 0 1.162-.015 2.183-.725 2.541-1.806l10.37-32.049zm15.086 28.105h-7.925l4.477-13.61 3.632.024-3.371 10.274h4.291l-1.104 3.312z"/><path d="M359.298 161.892h-3.602l10.825-33.454c.725-2.183 2.794-3.672 5.23-3.705 2.019-.01 3.115-.008 5.137 0 4.375.02 6.058 1.74 7.076 4.572.489 1.36.531 3.278.128 4.55-1.042 3.197-1.289 3.937-2.344 7.127-.691 2.053-2.553 3.426-4.807 3.609 0 0 3.033-9.152 3.978-12.141.571-1.866-.521-4.413-3.399-4.413-2.014-.023-3.272-.01-5.281 0-1.163.015-2.185.726-2.544 1.806l-10.397 32.049zm14.034-9.582h7.924l-4.476 13.609-3.632-.023 3.371-10.274h-4.291l1.104-3.312z"/><path d="M390.975 134.976h3.602l-10.824 33.455c-.725 2.183-2.793 3.672-5.229 3.704-2.019.011-3.115.009-5.137 0-4.375-.019-6.058-1.739-7.076-4.571-.49-1.361-.531-3.278-.129-4.551 1.043-3.196 1.289-3.936 2.344-7.126.691-2.054 2.553-3.427 4.807-3.61 0 0-3.032 9.152-3.977 12.142-.572 1.866.521 4.412 3.399 4.412 2.013.024 3.272.011 5.28 0 1.164-.015 2.185-.725 2.544-1.806l10.396-32.049zm14.663 31.143h-7.925l4.477-13.61 3.632.024-3.371 10.273h4.291l-1.104 3.313z"/><path d="M387.994 183.452h-3.602l10.825-33.455c.725-2.182 2.794-3.672 5.23-3.704 2.019-.011 3.115-.009 5.137 0 4.375.019 6.058 1.739 7.076 4.572.489 1.36.531 3.278.128 4.55-1.042 3.196-1.289 3.937-2.344 7.126-.691 2.054-2.553 3.427-4.807 3.61 0 0 3.032-9.152 3.978-12.142.571-1.866-.521-4.412-3.4-4.412-2.013-.024-3.271-.011-5.28 0-1.163.015-2.185.725-2.544 1.806l-10.397 32.049zm14.034-9.583h7.924l-4.476 13.61-3.632-.024 3.371-10.273h-4.291l1.104-3.313z"/><path d="M419.671 156.536h3.602l-10.824 33.455c-.725 2.182-2.793 3.672-5.229 3.704-2.019.011-3.115.008-5.137 0-4.375-.02-6.058-1.739-7.076-4.572-.49-1.36-.531-3.278-.129-4.55 1.043-3.196 1.289-3.937 2.344-7.127.691-2.053 2.553-3.426 4.807-3.609 0 0-3.032 9.152-3.977 12.142-.572 1.866.521 4.412 3.399 4.412 2.013.024 3.272.011 5.28 0 1.164-.015 2.185-.725 2.544-1.806l10.396-32.049zm14.737 30.401h-7.925l4.477-13.609 3.631.024-3.37 10.273h4.291l-1.104 3.312z"/><path d="M416.763 204.271h-3.602l10.826-33.455c.725-2.182 2.793-3.672 5.229-3.704 2.02-.011 3.116-.009 5.137 0 4.375.019 6.058 1.739 7.077 4.571.489 1.361.53 3.279.128 4.551-1.042 3.196-1.289 3.936-2.344 7.126-.691 2.054-2.553 3.427-4.807 3.61 0 0 3.032-9.152 3.978-12.142.571-1.866-.522-4.412-3.4-4.412-2.013-.024-3.272-.011-5.28 0-1.164.015-2.185.725-2.544 1.806l-10.398 32.049zm14.034-9.583h7.925l-4.476 13.61-3.632-.024 3.37-10.273h-4.29l1.103-3.313z"/><path d="M448.441 177.355h3.602l-10.824 33.454c-.725 2.183-2.794 3.672-5.23 3.705-2.019.01-3.115.008-5.137 0-4.374-.02-6.057-1.739-7.076-4.572-.489-1.36-.53-3.278-.128-4.55 1.042-3.196 1.289-3.937 2.344-7.127.69-2.053 2.553-3.426 4.807-3.609 0 0-3.033 9.152-3.978 12.141-.571 1.867.521 4.413 3.4 4.413 2.013.023 3.272.011 5.28 0 1.163-.015 2.185-.726 2.544-1.806l10.396-32.049zm-52.707-47.543h-3.6l10.798-33.455c.724-2.182 2.79-3.672 5.225-3.704 2.017-.01 3.113-.009 5.133 0 4.373.02 6.056 1.74 7.075 4.572.49 1.36.532 3.278.131 4.55-1.04 3.196-1.286 3.937-2.338 7.127-.689 2.053-2.55 3.426-4.802 3.609 0 0 3.025-9.152 3.968-12.142.57-1.866-.524-4.412-3.4-4.412-2.012-.024-3.27-.01-5.278 0-1.162.015-2.182.725-2.541 1.806l-10.371 32.049zm14.016-9.583h7.925l-4.477 13.61-3.631-.024 3.37-10.273h-4.291l1.104-3.313z"/><path d="M427.393 102.896h3.602l-10.823 33.455c-.726 2.182-2.794 3.672-5.23 3.704-2.019.011-3.115.009-5.137 0-4.374-.019-6.057-1.739-7.076-4.572-.489-1.36-.531-3.278-.128-4.55 1.042-3.196 1.288-3.937 2.344-7.127.69-2.053 2.552-3.426 4.806-3.609 0 0-3.032 9.152-3.977 12.142-.571 1.866.521 4.412 3.399 4.412 2.014.024 3.272.011 5.281 0 1.163-.015 2.184-.725 2.544-1.806l10.395-32.049zM361.626 249.69h-7.924l4.477-13.609 3.631.023-3.37 10.274h4.29l-1.104 3.312z"/><path d="M343.982 267.024h-3.602l10.826-33.455c.725-2.183 2.793-3.672 5.229-3.705 2.019-.01 3.116-.008 5.137 0 4.375.02 6.058 1.74 7.077 4.572.489 1.36.53 3.278.128 4.55-1.043 3.197-1.289 3.937-2.344 7.127-.691 2.053-2.554 3.427-4.808 3.61 0 0 3.033-9.153 3.979-12.142.571-1.866-.522-4.413-3.4-4.413-2.013-.023-3.272-.01-5.28 0-1.164.015-2.185.726-2.544 1.806l-10.398 32.05zm14.034-9.583h7.925l-4.477 13.609-3.631-.023 3.37-10.274h-4.291l1.104-3.312z"/><path d="M375.659 240.107h3.603l-10.824 33.455c-.725 2.183-2.794 3.672-5.23 3.704-2.019.011-3.115.009-5.137 0-4.374-.019-6.057-1.739-7.076-4.571-.489-1.361-.531-3.278-.128-4.55 1.042-3.197 1.289-3.937 2.344-7.127.69-2.054 2.553-3.427 4.806-3.61 0 0-3.032 9.152-3.977 12.142-.571 1.866.521 4.412 3.4 4.412 2.013.024 3.271.011 5.28 0 1.163-.015 2.184-.725 2.544-1.805l10.395-32.05zm95.167-85.25h-7.925l4.477-13.609 3.632.023-3.371 10.274h4.291l-1.104 3.312z"/><path d="M453.182 172.191h-3.602l10.825-33.455c.725-2.183 2.794-3.672 5.23-3.705 2.019-.01 3.115-.008 5.137 0 4.375.02 6.058 1.74 7.076 4.572.489 1.36.531 3.278.128 4.55-1.042 3.197-1.289 3.937-2.344 7.127-.691 2.053-2.553 3.427-4.807 3.61 0 0 3.032-9.153 3.978-12.142.571-1.866-.521-4.413-3.4-4.413-2.013-.023-3.271-.01-5.28 0-1.163.015-2.185.726-2.544 1.806l-10.397 32.05zm55.293-62.212h7.924l-4.476 13.61-3.632-.024 3.371-10.273h-4.291l1.104-3.313z"/><path d="M526.118 92.646h3.602L518.896 126.1c-.725 2.183-2.793 3.672-5.229 3.705-2.019.01-3.115.008-5.137 0-4.375-.02-6.058-1.739-7.076-4.572-.49-1.36-.531-3.278-.129-4.55 1.042-3.196 1.289-3.937 2.344-7.127.691-2.053 2.553-3.426 4.807-3.609 0 0-3.032 9.152-3.978 12.141-.571 1.867.522 4.413 3.4 4.413 2.013.023 3.272.011 5.28 0 1.164-.015 2.185-.726 2.544-1.806l10.396-32.05zm-171.284 73.817h3.599l-10.795 33.455c-.724 2.183-2.79 3.672-5.224 3.705-2.018.01-3.114.008-5.134 0-4.372-.02-6.055-1.74-7.075-4.572-.49-1.36-.532-3.278-.131-4.55 1.04-3.197 1.286-3.937 2.338-7.127.689-2.053 2.549-3.427 4.802-3.61 0 0-3.025 9.153-3.968 12.142-.57 1.866.524 4.413 3.4 4.413 2.013.023 3.27.01 5.278 0 1.162-.015 2.182-.726 2.541-1.806l10.369-32.05zm14.681 31.069h-7.925l4.477-13.61 3.632.024-3.371 10.273h4.291l-1.104 3.313z"/><path d="M351.87 214.865h-3.602l10.826-33.454c.725-2.183 2.793-3.672 5.23-3.705 2.019-.011 3.115-.008 5.137 0 4.374.02 6.057 1.739 7.076 4.572.489 1.36.53 3.278.128 4.55-1.042 3.196-1.289 3.937-2.344 7.127-.691 2.053-2.553 3.426-4.807 3.609 0 0 3.032-9.152 3.978-12.141.571-1.867-.521-4.413-3.4-4.413-2.013-.024-3.272-.011-5.28 0-1.164.015-2.185.726-2.544 1.806l-10.398 32.049zm14.034-9.583h7.925l-4.476 13.61-3.632-.024 3.37-10.273h-4.29l1.103-3.313z"/><path d="M383.548 187.949h3.602l-10.824 33.455c-.725 2.182-2.794 3.672-5.23 3.704-2.019.011-3.115.009-5.136 0-4.375-.019-6.058-1.739-7.077-4.572-.489-1.36-.53-3.278-.128-4.55 1.042-3.196 1.289-3.936 2.344-7.126.691-2.054 2.553-3.427 4.807-3.61 0 0-3.032 9.152-3.978 12.142-.571 1.866.522 4.412 3.4 4.412 2.013.024 3.272.011 5.28 0 1.163-.015 2.185-.725 2.544-1.806l10.396-32.049zm14.736 30.476h-7.924l4.476-13.61 3.632.024-3.371 10.273h4.291l-1.104 3.313z"/><path d="M380.64 235.758h-3.602l10.825-33.454c.726-2.183 2.794-3.672 5.23-3.705 2.019-.01 3.115-.008 5.137 0 4.375.02 6.058 1.739 7.076 4.572.49 1.36.531 3.278.129 4.55-1.043 3.197-1.289 3.937-2.345 7.127-.69 2.053-2.553 3.426-4.807 3.609 0 0 3.033-9.152 3.978-12.141.572-1.866-.521-4.413-3.399-4.413-2.014-.023-3.272-.011-5.281 0-1.163.015-2.184.726-2.544 1.806l-10.397 32.049zm14.034-9.582h7.925l-4.477 13.609-3.631-.023 3.37-10.274h-4.291l1.104-3.312z"/><path d="M412.317 208.842h3.602l-10.824 33.455c-.725 2.183-2.793 3.672-5.229 3.704-2.019.011-3.115.009-5.137 0-4.374-.019-6.057-1.739-7.076-4.571-.489-1.361-.531-3.279-.129-4.551 1.043-3.196 1.289-3.936 2.344-7.126.691-2.054 2.553-3.427 4.807-3.61 0 0-3.032 9.152-3.977 12.142-.571 1.866.521 4.412 3.399 4.412 2.014.024 3.272.011 5.281 0 1.163-.015 2.184-.725 2.543-1.806l10.396-32.049z"/></g><defs><clipPath id="clip0_3_30007"><path fill="#fff" d="M0 0h689v644H0z"/></clipPath></defs></svg>