<svg width="153" height="16" viewBox="0 0 153 16" fill="none" xmlns="http://www.w3.org/2000/svg">
<path d="M0.328125 8.07812C0.328125 9.17188 0.742188 10.125 1.58594 10.9375C2.42188 11.75 3.41406 12.1562 4.5625 12.1562C4.96875 12.1562 5.35938 12.1016 5.72656 11.9844C6.09375 11.8672 6.39062 11.7422 6.61719 11.6016C6.85156 11.4609 7.0625 11.3047 7.25781 11.125C7.46094 10.9453 7.58594 10.8203 7.64062 10.7422C7.69531 10.6641 7.73438 10.6094 7.76562 10.5625L6.48438 9.20312L6.27344 9.46875C6.13281 9.64062 5.89844 9.8125 5.57812 9.98438C5.25781 10.1562 4.92188 10.2422 4.5625 10.2422C4 10.2422 3.51562 10.0312 3.10156 9.60938C2.69531 9.1875 2.48438 8.67969 2.48438 8.08594C2.48438 7.49219 2.69531 6.97656 3.10156 6.55469C3.50781 6.13281 4 5.92188 4.5625 5.92188C4.92188 5.92188 5.25781 6.02344 5.57812 6.21094C5.89844 6.39844 6.10938 6.55469 6.20312 6.67188C6.29688 6.79688 6.36719 6.89062 6.40625 6.96094L7.76562 5.60156L7.64844 5.4375C7.57031 5.32812 7.4375 5.1875 7.25 5.03125C7.07031 4.875 6.85938 4.72656 6.625 4.57031C6.39062 4.41406 6.09375 4.28125 5.72656 4.17188C5.35938 4.0625 4.96875 4 4.5625 4C3.41406 4 2.42188 4.41406 1.57812 5.22656C0.742188 6.03906 0.328125 6.99219 0.328125 8.07812ZM10.9766 8.08594C10.9766 7.5 11.1641 7.00781 11.5469 6.60156C11.9219 6.20312 12.375 6 12.8984 6C13.4141 6 13.8672 6.20312 14.25 6.60156C14.625 7.00781 14.8203 7.5 14.8203 8.08594C14.8203 8.67188 14.625 9.16406 14.25 9.5625C13.8672 9.96094 13.4141 10.1562 12.8984 10.1562C12.375 10.1562 11.9219 9.96094 11.5469 9.5625C11.1641 9.16406 10.9766 8.67188 10.9766 8.08594ZM17.0547 8.07812C17.0547 6.99219 16.6406 6.03906 15.8125 5.22656C14.9844 4.41406 14.0156 4.00781 12.8984 4.00781C11.7734 4.00781 10.8047 4.41406 9.97656 5.22656C9.14844 6.03906 8.73438 6.99219 8.73438 8.07812C8.73438 9.17188 9.14844 10.125 9.97656 10.9375C10.8047 11.75 11.7734 12.1562 12.8984 12.1562C14.0156 12.1562 14.9844 11.75 15.8125 10.9375C16.6406 10.125 17.0547 9.17188 17.0547 8.07812ZM20.8125 4.15625H18.6562V12H20.8125V7.92188C20.8125 7.33594 20.9531 6.88281 21.2422 6.5625C21.5312 6.24219 21.9219 6.07812 22.4141 6.07812C22.8594 6.07812 23.2266 6.22656 23.5078 6.52344C23.7891 6.82031 23.9297 7.20312 23.9297 7.67969V12H26.0859V7.4375C26.0859 6.39062 25.8047 5.55469 25.2422 4.92969C24.6797 4.3125 23.9453 4 23.0469 4C22.625 4 22.2188 4.10938 21.8281 4.3125C21.4375 4.52344 21.1875 4.6875 21.0703 4.8125C20.9609 4.9375 20.8672 5.03906 20.8047 5.125L20.8125 4.15625ZM29.1328 3.28125C29.1328 3.59375 29.0469 3.84375 28.875 4.03125C28.7031 4.22656 28.4922 4.32031 28.25 4.32031H27.5312V6.24219H28.8906V9.4375C28.8906 11.25 29.7109 12.1562 31.3672 12.1562C31.8984 12.1641 32.3828 12.0859 32.8125 11.9219V10.0781L32.7188 10.1094C32.6484 10.1406 32.5469 10.1719 32.4141 10.2031C32.2812 10.2344 32.1484 10.2422 32.0078 10.2422C31.7266 10.2422 31.5 10.1562 31.3203 9.98438C31.1406 9.8125 31.0547 9.60938 31.0547 9.35938V6.24219H32.6484V4.32031H31.0547V1.84375H29.1328V3.28125ZM38.6484 12H40.8047V7.11719C40.8047 6.22656 40.4922 5.48438 39.8672 4.89062C39.2422 4.29688 38.4297 4 37.4453 4C37.0625 4 36.6875 4.0625 36.3203 4.17188C35.9609 4.28125 35.6641 4.40625 35.4375 4.53906C35.2188 4.67188 35.0078 4.82031 34.8203 4.99219C34.6328 5.16406 34.5078 5.28906 34.4531 5.35938C34.3984 5.42969 34.3516 5.48438 34.3203 5.52344L35.5156 6.71875L35.6953 6.53125C35.8203 6.39062 36.0234 6.25781 36.3125 6.125C36.6094 5.99219 36.9297 5.92188 37.2812 5.92188C37.7109 5.92188 38.0469 6.03125 38.2812 6.23438C38.5234 6.44531 38.6406 6.71094 38.6406 7.03906L36.1562 7.48438C35.4375 7.61719 34.8672 7.89844 34.4531 8.32031C34.0469 8.75 33.8359 9.28125 33.8359 9.92188C33.8359 10.5469 34.0859 11.0703 34.5703 11.5078C35.0625 11.9453 35.6953 12.1562 36.4766 12.1562C36.8828 12.1562 37.2734 12.0703 37.6484 11.8984C38.0234 11.7266 38.2734 11.5859 38.3828 11.4766C38.4922 11.3672 38.5781 11.2812 38.6406 11.2031L38.6484 12ZM37.0391 10.3984C36.3516 10.3984 36 10.1328 36 9.60156C36 9.10938 36.2969 8.8125 36.8828 8.71875L38.6406 8.39844V8.64062C38.6406 9.19531 38.5 9.625 38.2109 9.9375C37.9219 10.25 37.5312 10.3984 37.0391 10.3984ZM49.8516 5.60156L49.6094 5.375C49.4453 5.22656 49.2812 5.00781 49.125 4.72656C48.9688 4.44531 48.8906 4.17969 48.8906 3.92188C48.8906 3.48438 49.0156 3.14062 49.2812 2.875C49.5391 2.60938 49.8906 2.47656 50.3281 2.47656C50.7812 2.47656 51.1484 2.64062 51.4297 2.96094C51.7109 3.28125 51.8516 3.73438 51.8516 4.32031H50.4922V6.24219H51.8516V9.4375C51.8516 11.25 52.6719 12.1562 54.3281 12.1562C54.8594 12.1641 55.3438 12.0859 55.7734 11.9219V10.0781L55.6719 10.1094C55.6094 10.1406 55.5078 10.1719 55.375 10.2031C55.2422 10.2344 55.1094 10.2422 54.9688 10.2422C54.6875 10.2422 54.4609 10.1562 54.2812 9.98438C54.0938 9.8125 54.0078 9.60938 54.0078 9.35938V6.24219H55.6094V4.32031H54.0078C54.0078 3.17188 53.6797 2.25781 53.0234 1.57812C52.3672 0.90625 51.4922 0.5625 50.4062 0.5625C49.3438 0.5625 48.4922 0.867188 47.8516 1.46094C47.2109 2.05469 46.8906 2.82031 46.8906 3.75781V4H46.6484C45.4922 4 44.5 4.41406 43.6641 5.22656C42.8203 6.03906 42.4062 6.99219 42.4062 8.07812C42.4062 9.17188 42.8203 10.125 43.6641 10.9375C44.5 11.75 45.4922 12.1562 46.6484 12.1562C47.0547 12.1562 47.4375 12.1016 47.8047 11.9844C48.1719 11.8672 48.4688 11.7422 48.7031 11.6016C48.9297 11.4609 49.1406 11.3047 49.3438 11.125C49.5391 10.9453 49.6641 10.8203 49.7188 10.7422C49.7734 10.6641 49.8203 10.6094 49.8516 10.5625L48.5703 9.20312L48.3594 9.46875C48.2109 9.64062 47.9766 9.8125 47.6562 9.98438C47.3359 10.1562 47 10.2422 46.6484 10.2422C46.0859 10.2422 45.5938 10.0312 45.1875 9.60938C44.7734 9.1875 44.5703 8.67969 44.5703 8.08594C44.5703 7.49219 44.7734 6.97656 45.1797 6.55469C45.5859 6.13281 46.0781 5.92188 46.6484 5.92188C47 5.92188 47.3359 6.02344 47.6562 6.21094C47.9766 6.39844 48.1875 6.55469 48.2812 6.67188C48.375 6.79688 48.4453 6.89062 48.4922 6.96094L49.8516 5.60156ZM63.7656 6.64062C64.125 6.64062 64.4297 6.77344 64.6797 7.03906C64.9219 7.30469 65.0469 7.65625 65.0469 8.07812C65.0469 8.50781 64.9219 8.85938 64.6797 9.125C64.4297 9.39062 64.125 9.52344 63.7656 9.52344C63.3828 9.52344 63.0625 9.39062 62.7969 9.11719C62.5312 8.84375 62.3984 8.5 62.3984 8.07812C62.3984 7.66406 62.5312 7.32031 62.7891 7.04688C63.0547 6.78125 63.375 6.64062 63.7656 6.64062ZM63.5234 5.11719C62.7891 5.11719 62.1562 5.40625 61.6094 5.96875C61.0703 6.53125 60.7969 7.23438 60.7969 8.07812C60.7969 8.9375 61.0703 9.64062 61.6172 10.2031C62.1641 10.7656 62.8203 11.0391 63.6016 11.0391C64.0312 11.0391 64.4141 10.9531 64.7578 10.7812C65.1016 10.6094 65.3125 10.4609 65.4062 10.3516C65.5 10.2422 65.5625 10.1562 65.6094 10.0781L65.7812 10.3203C65.8984 10.4844 66.1094 10.6484 66.4141 10.8047C66.7266 10.9609 67.0625 11.0391 67.4375 11.0391C68.2344 11.0391 68.8828 10.7422 69.3984 10.1484C69.9141 9.55469 70.1641 8.72656 70.1641 7.67969C70.1641 6.0625 69.5625 4.67188 68.3438 3.50781C67.125 2.34375 65.625 1.75781 63.8438 1.75781C62.75 1.75781 61.7188 2.04688 60.7578 2.61719C59.7969 3.1875 59.0312 3.95312 58.4609 4.91406C57.8906 5.875 57.6016 6.90625 57.6016 8C57.6016 9.10156 57.8906 10.1328 58.4609 11.0938C59.0312 12.0547 59.7969 12.8203 60.7578 13.3906C61.7188 13.9609 62.75 14.2422 63.8438 14.2422C64.2969 14.2422 64.7344 14.1953 65.1562 14.1016C65.5781 14.0078 65.9297 13.8984 66.2031 13.7734C66.4766 13.6484 66.7344 13.5078 66.9688 13.3516C67.2109 13.1953 67.3672 13.0859 67.4453 13.0234C67.5234 12.9609 67.5703 12.9141 67.6016 12.8828L66.7188 11.7578L66.3984 12C66.1953 12.1641 65.8594 12.3281 65.375 12.4844C64.8984 12.6406 64.3906 12.7188 63.8516 12.7188C62.5703 12.7188 61.4766 12.2656 60.5703 11.3438C59.6641 10.4297 59.2109 9.3125 59.2109 8C59.2109 6.6875 59.6641 5.57812 60.5703 4.65625C61.4766 3.74219 62.5703 3.28125 63.8516 3.28125C65.1953 3.28125 66.3125 3.71094 67.2188 4.57031C68.1172 5.42969 68.5703 6.46875 68.5703 7.67969C68.5625 8.96094 68.1875 9.60156 67.4453 9.60156C67.1953 9.60156 66.9922 9.51562 66.8203 9.34375C66.6484 9.17188 66.5703 8.96875 66.5703 8.71875V5.20312H65.0469V5.75781L64.9062 5.60156C64.7969 5.49219 64.6172 5.39062 64.3672 5.28125C64.1172 5.17188 63.8359 5.11719 63.5234 5.11719ZM74.2578 0.796875H72.0938V12H74.2578V7.92188C74.2578 7.33594 74.3984 6.88281 74.6875 6.5625C74.9688 6.24219 75.3594 6.07812 75.8516 6.07812C76.2969 6.07812 76.6641 6.22656 76.9453 6.52344C77.2266 6.82031 77.375 7.20312 77.375 7.67969V12H79.5312V7.4375C79.5312 6.39062 79.2422 5.55469 78.6797 4.92969C78.1172 4.3125 77.3828 4 76.4922 4C76.0625 4 75.6562 4.10938 75.2656 4.3125C74.875 4.52344 74.625 4.6875 74.5156 4.8125C74.4062 4.9375 74.3125 5.03906 74.25 5.125L74.2578 0.796875ZM83.8516 0.796875H81.6875V12H83.8516V0.796875ZM93.4531 8.79688L93.5312 7.92188C93.5312 6.80469 93.1562 5.875 92.4141 5.125C91.6641 4.375 90.7344 4 89.6172 4C88.4922 4 87.5312 4.40625 86.7344 5.20312C85.9297 6 85.5312 6.96094 85.5312 8.07812C85.5312 9.20312 85.9375 10.1641 86.75 10.9609C87.5625 11.7578 88.5391 12.1562 89.6953 12.1562C90.1016 12.1562 90.4922 12.1094 90.875 12.0156C91.2578 11.9219 91.5703 11.8203 91.8125 11.6953C92.0469 11.5703 92.2734 11.4297 92.4922 11.2734C92.7031 11.1172 92.8438 11.0078 92.9062 10.9453L93.0547 10.7969L91.9375 9.35938L91.7109 9.60156C91.5703 9.76562 91.3203 9.92969 90.9766 10.0859C90.6328 10.2422 90.2578 10.3203 89.8516 10.3203C89.2891 10.3203 88.8203 10.1797 88.4531 9.88281C88.0781 9.58594 87.8516 9.22656 87.7734 8.79688H93.4531ZM89.6172 5.84375C90.0703 5.84375 90.4609 5.98438 90.7734 6.25C91.0859 6.52344 91.2891 6.86719 91.375 7.28125H87.7734C87.8984 6.85938 88.125 6.50781 88.4453 6.24219C88.7656 5.97656 89.1562 5.84375 89.6172 5.84375ZM100.5 11.3594C100.5 12 100.312 12.5078 99.9375 12.8828C99.5625 13.2578 99.0625 13.4375 98.4219 13.4375C97.9922 13.4375 97.5938 13.3438 97.2188 13.1562C96.8438 12.9688 96.6016 12.8125 96.4922 12.6953C96.3828 12.5703 96.3047 12.4766 96.25 12.4062L94.8906 13.6875L95.0391 13.8672C95.125 13.9766 95.2656 14.1172 95.4688 14.2891C95.6719 14.4531 95.9141 14.6172 96.1797 14.7734C96.4531 14.9297 96.7969 15.0703 97.2109 15.1875C97.6172 15.3047 98.0469 15.3672 98.5 15.3672C99.6875 15.3672 100.68 14.9766 101.469 14.2109C102.258 13.4453 102.656 12.4922 102.656 11.3672V4.16406H100.5V5.125L100.258 4.83594C100.102 4.65625 99.8281 4.47656 99.4375 4.28906C99.0469 4.10156 98.625 4.00781 98.1797 4.00781C97.2812 4.00781 96.4688 4.39062 95.7422 5.17188C95.0156 5.95312 94.6562 6.86719 94.6562 7.92969C94.6562 8.98438 95.0156 9.89844 95.7422 10.6797C96.4688 11.4609 97.2812 11.8516 98.1797 11.8516C98.4609 11.8516 98.7422 11.8047 99.0078 11.7266C99.2734 11.6484 99.4922 11.5547 99.6562 11.4531C99.8203 11.3516 99.9766 11.2344 100.117 11.1094C100.258 10.9844 100.352 10.8906 100.398 10.8438C100.445 10.7969 100.477 10.7578 100.5 10.7266V11.3594ZM96.8984 7.92188C96.8984 7.36719 97.0625 6.90625 97.4062 6.54688C97.75 6.1875 98.1641 6.00781 98.6562 6.00781C99.1484 6.00781 99.5781 6.1875 99.9453 6.5625C100.312 6.9375 100.5 7.39062 100.5 7.92188C100.5 8.45312 100.312 8.91406 99.9453 9.28906C99.5781 9.66406 99.1484 9.85156 98.6562 9.85156C98.1641 9.85156 97.75 9.66406 97.4062 9.30469C97.0625 8.9375 96.8984 8.47656 96.8984 7.92188ZM109.055 12H111.211V7.11719C111.211 6.22656 110.898 5.48438 110.273 4.89062C109.648 4.29688 108.836 4 107.852 4C107.469 4 107.094 4.0625 106.727 4.17188C106.367 4.28125 106.07 4.40625 105.844 4.53906C105.625 4.67188 105.414 4.82031 105.227 4.99219C105.039 5.16406 104.914 5.28906 104.859 5.35938C104.805 5.42969 104.758 5.48438 104.727 5.52344L105.922 6.71875L106.102 6.53125C106.227 6.39062 106.43 6.25781 106.719 6.125C107.016 5.99219 107.336 5.92188 107.688 5.92188C108.117 5.92188 108.453 6.03125 108.688 6.23438C108.93 6.44531 109.047 6.71094 109.047 7.03906L106.562 7.48438C105.844 7.61719 105.273 7.89844 104.859 8.32031C104.453 8.75 104.242 9.28125 104.242 9.92188C104.242 10.5469 104.492 11.0703 104.977 11.5078C105.469 11.9453 106.102 12.1562 106.883 12.1562C107.289 12.1562 107.68 12.0703 108.055 11.8984C108.43 11.7266 108.68 11.5859 108.789 11.4766C108.898 11.3672 108.984 11.2812 109.047 11.2031L109.055 12ZM107.445 10.3984C106.758 10.3984 106.406 10.1328 106.406 9.60156C106.406 9.10938 106.703 8.8125 107.289 8.71875L109.047 8.39844V8.64062C109.047 9.19531 108.906 9.625 108.617 9.9375C108.328 10.25 107.938 10.3984 107.445 10.3984ZM115.539 0.796875H113.375V12H115.539V0.796875ZM123.141 5.20312L122.867 4.89844C122.688 4.71094 122.367 4.50781 121.914 4.30469C121.461 4.10156 120.961 4 120.422 4C119.562 4 118.844 4.25781 118.258 4.76562C117.672 5.28125 117.383 5.85156 117.383 6.47656C117.383 6.96094 117.5 7.36719 117.75 7.67969C117.992 8 118.289 8.23438 118.641 8.38281C118.992 8.53906 119.352 8.66406 119.711 8.77344C120.07 8.88281 120.367 9.00781 120.617 9.14844C120.859 9.28906 120.984 9.46875 120.984 9.67969C120.984 9.89844 120.891 10.0703 120.719 10.2031C120.547 10.3359 120.289 10.3984 119.945 10.3984C119.633 10.3984 119.328 10.3203 119.039 10.1562C118.742 9.99219 118.555 9.85938 118.461 9.76562C118.367 9.67188 118.305 9.58594 118.266 9.52344L117.062 10.7188L117.172 10.8828C117.25 10.9766 117.375 11.0938 117.547 11.2344C117.719 11.375 117.93 11.5078 118.164 11.6484C118.398 11.7891 118.703 11.9141 119.078 12.0078C119.453 12.1094 119.844 12.1562 120.266 12.1562C121.234 12.1562 121.992 11.9219 122.547 11.4453C123.102 10.9766 123.383 10.3828 123.383 9.67969C123.383 9.19531 123.258 8.78125 123.016 8.45312C122.766 8.125 122.469 7.88281 122.109 7.73438C121.75 7.58594 121.391 7.46094 121.039 7.35156C120.688 7.24219 120.391 7.125 120.148 6.98438C119.898 6.85156 119.781 6.67969 119.781 6.47656C119.781 6.3125 119.867 6.16406 120.039 6.03906C120.211 5.91406 120.445 5.84375 120.742 5.84375C120.977 5.84375 121.203 5.90625 121.43 6.02344C121.648 6.14062 121.797 6.23438 121.867 6.30469C121.938 6.38281 121.992 6.4375 122.023 6.47656L123.141 5.20312ZM124.742 10.9609C124.742 11.2812 124.867 11.5625 125.117 11.7969C125.367 12.0391 125.664 12.1562 126.023 12.1562C126.375 12.1562 126.68 12.0391 126.93 11.7969C127.18 11.5625 127.305 11.2812 127.305 10.9609C127.305 10.6406 127.18 10.3594 126.93 10.1172C126.68 9.88281 126.375 9.75781 126.023 9.75781C125.664 9.75781 125.367 9.88281 125.117 10.1172C124.867 10.3594 124.742 10.6406 124.742 10.9609ZM131.141 4.15625H128.984V12H131.141V7.92188C131.141 7.33594 131.281 6.88281 131.57 6.5625C131.859 6.24219 132.25 6.07812 132.742 6.07812C133.188 6.07812 133.555 6.22656 133.836 6.52344C134.117 6.82031 134.258 7.20312 134.258 7.67969V12H136.414V7.4375C136.414 6.39062 136.133 5.55469 135.57 4.92969C135.008 4.3125 134.273 4 133.375 4C132.953 4 132.547 4.10938 132.156 4.3125C131.766 4.52344 131.516 4.6875 131.398 4.8125C131.289 4.9375 131.195 5.03906 131.133 5.125L131.141 4.15625ZM145.938 8.79688L146.016 7.92188C146.016 6.80469 145.641 5.875 144.898 5.125C144.148 4.375 143.219 4 142.102 4C140.977 4 140.016 4.40625 139.219 5.20312C138.414 6 138.016 6.96094 138.016 8.07812C138.016 9.20312 138.422 10.1641 139.234 10.9609C140.047 11.7578 141.023 12.1562 142.18 12.1562C142.586 12.1562 142.977 12.1094 143.359 12.0156C143.742 11.9219 144.055 11.8203 144.297 11.6953C144.531 11.5703 144.758 11.4297 144.977 11.2734C145.188 11.1172 145.328 11.0078 145.391 10.9453L145.539 10.7969L144.422 9.35938L144.195 9.60156C144.055 9.76562 143.805 9.92969 143.461 10.0859C143.117 10.2422 142.742 10.3203 142.336 10.3203C141.773 10.3203 141.305 10.1797 140.938 9.88281C140.562 9.58594 140.336 9.22656 140.258 8.79688H145.938ZM142.102 5.84375C142.555 5.84375 142.945 5.98438 143.258 6.25C143.57 6.52344 143.773 6.86719 143.859 7.28125H140.258C140.383 6.85938 140.609 6.50781 140.93 6.24219C141.25 5.97656 141.641 5.84375 142.102 5.84375ZM148.586 3.28125C148.586 3.59375 148.5 3.84375 148.328 4.03125C148.156 4.22656 147.945 4.32031 147.703 4.32031H146.984V6.24219H148.344V9.4375C148.344 11.25 149.164 12.1562 150.82 12.1562C151.352 12.1641 151.836 12.0859 152.266 11.9219V10.0781L152.172 10.1094C152.102 10.1406 152 10.1719 151.867 10.2031C151.734 10.2344 151.602 10.2422 151.461 10.2422C151.18 10.2422 150.953 10.1562 150.773 9.98438C150.594 9.8125 150.508 9.60938 150.508 9.35938V6.24219H152.102V4.32031H150.508V1.84375H148.586V3.28125Z" fill="#24A3FF"/>
</svg>
